<?xml version="1.0" encoding="utf-8"?>
<!-- Generator: Adobe Illustrator 20.1.0, SVG Export Plug-In . SVG Version: 6.00 Build 0)  -->
<svg version="1.1" id="Layer_1" xmlns="http://www.w3.org/2000/svg" xmlns:xlink="http://www.w3.org/1999/xlink" x="0px" y="0px"
	 viewBox="0 0 1295 899" style="enable-background:new 0 0 1295 899;" xml:space="preserve">
<style type="text/css">
	.st0{fill:none;stroke:#FF0000;stroke-width:1.000000e-03;stroke-miterlimit:10;}
	.st1{fill:none;stroke:#0000FF;stroke-width:1.000000e-03;stroke-miterlimit:10;}
	.st2{font-family:'Helvetica-Light';}
	.st3{font-size:24px;}
	.st4{fill:#0000FF;stroke:#0000FF;stroke-width:1.000000e-03;stroke-miterlimit:10;}
	.st5{font-size:10px;}
</style>
<path class="st0" d="M24.6,283.1c-1.8,0-3.4-1.1-4.6-2.9c-1.2-1.8-1.9-4.3-1.9-7V150.5V27.9c0-2.7,0.7-5.2,1.9-7
	c1.2-1.8,2.8-2.9,4.6-2.9h110.6h110.6c1.8,0,3.4,1.1,4.6,2.9s1.9,4.3,1.9,7v122.6v122.6c0,2.7-0.7,5.2-1.9,7
	c-1.2,1.8-2.8,2.9-4.6,2.9H135.1H24.6z"/>
<path class="st0" d="M32.6,272.9c-1.3,0-2.4-0.5-3.3-1.3c-0.8-0.8-1.3-2-1.3-3.3V150.5V32.7c0-1.3,0.5-2.4,1.3-3.3
	c0.8-0.8,2-1.3,3.3-1.3h78.6h78.6c1.3,0,2.4,0.5,3.3,1.3c0.8,0.8,1.3,2,1.3,3.3v117.8v117.8c0,1.3-0.5,2.4-1.3,3.3
	c-0.8,0.8-2,1.3-3.3,1.3h-78.6H32.6z"/>
<path class="st0" d="M32.6,272.9c-1.3,0-2.4-0.5-3.3-1.3c-0.8-0.8-1.3-2-1.3-3.3V150.5V32.7c0-1.3,0.5-2.4,1.3-3.3
	c0.8-0.8,2-1.3,3.3-1.3h78.6h78.6c1.3,0,2.4,0.5,3.3,1.3c0.8,0.8,1.3,2,1.3,3.3v117.8v117.8c0,1.3-0.5,2.4-1.3,3.3
	c-0.8,0.8-2,1.3-3.3,1.3h-78.6H32.6z"/>
<path class="st0" d="M214.1,46.6c0-2.6,1-4.9,2.7-6.5s4-2.7,6.5-2.7s4.9,1,6.5,2.7s2.7,4,2.7,6.5s-1,4.9-2.7,6.5s-4,2.7-6.5,2.7
	s-4.9-1-6.5-2.7S214.1,49.2,214.1,46.6z"/>
<path class="st0" d="M214.1,256.6c0-2.6,1-4.9,2.7-6.5s4-2.7,6.5-2.7s4.9,1,6.5,2.7s2.7,4,2.7,6.5c0,2.6-1,4.9-2.7,6.5
	s-4,2.7-6.5,2.7s-4.9-1-6.5-2.7S214.1,259.2,214.1,256.6z"/>
<path class="st0" d="M281.2,285.1c-1.8,0-3.4-1.1-4.6-2.9c-1.2-1.8-1.9-4.3-1.9-7V152.5V29.9c0-2.7,0.7-5.2,1.9-7
	c1.2-1.8,2.8-2.9,4.6-2.9h110.6h110.6c1.8,0,3.4,1.1,4.6,2.9c1.2,1.8,1.9,4.3,1.9,7v122.6v122.6c0,2.7-0.7,5.2-1.9,7
	c-1.2,1.8-2.8,2.9-4.6,2.9H391.8H281.2z"/>
<path class="st0" d="M289.3,274.9c-1.3,0-2.4-0.5-3.3-1.3s-1.3-2-1.3-3.3V152.5V34.7c0-1.3,0.5-2.4,1.3-3.3c0.8-0.8,2-1.3,3.3-1.3
	h78.6h78.6c1.3,0,2.4,0.5,3.3,1.3c0.8,0.8,1.3,2,1.3,3.3v117.8v117.8c0,1.3-0.5,2.4-1.3,3.3s-2,1.3-3.3,1.3h-78.6H289.3z"/>
<path class="st0" d="M289.3,274.9c-1.3,0-2.4-0.5-3.3-1.3s-1.3-2-1.3-3.3V152.5V34.7c0-1.3,0.5-2.4,1.3-3.3c0.8-0.8,2-1.3,3.3-1.3
	h78.6h78.6c1.3,0,2.4,0.5,3.3,1.3c0.8,0.8,1.3,2,1.3,3.3v117.8v117.8c0,1.3-0.5,2.4-1.3,3.3s-2,1.3-3.3,1.3h-78.6H289.3z"/>
<path class="st0" d="M470.8,48.6c0-2.6,1-4.9,2.7-6.5s4-2.7,6.5-2.7s4.9,1,6.5,2.7s2.7,4,2.7,6.5s-1,4.9-2.7,6.5
	c-1.7,1.7-4,2.7-6.5,2.7s-4.9-1-6.5-2.7C471.8,53.5,470.8,51.2,470.8,48.6z"/>
<path class="st0" d="M470.8,258.6c0-2.6,1-4.9,2.7-6.5s4-2.7,6.5-2.7s4.9,1,6.5,2.7s2.7,4,2.7,6.5s-1,4.9-2.7,6.5s-4,2.7-6.5,2.7
	s-4.9-1-6.5-2.7S470.8,261.2,470.8,258.6z"/>
<path class="st0" d="M281.2,572.9c-1.8,0-3.4-1.1-4.6-2.9c-1.2-1.8-1.9-4.3-1.9-7V440.4V317.7c0-2.7,0.7-5.2,1.9-7
	c1.2-1.8,2.8-2.9,4.6-2.9h110.6h110.6c1.8,0,3.4,1.1,4.6,2.9c1.2,1.8,1.9,4.3,1.9,7v122.6V563c0,2.7-0.7,5.2-1.9,7
	c-1.2,1.8-2.8,2.9-4.6,2.9H391.8H281.2z"/>
<path class="st0" d="M289.3,562.8c-1.3,0-2.4-0.5-3.3-1.3s-1.3-2-1.3-3.3V440.4V322.6c0-1.3,0.5-2.4,1.3-3.3s2-1.3,3.3-1.3h78.6
	h78.6c1.3,0,2.4,0.5,3.3,1.3s1.3,2,1.3,3.3v117.8v117.8c0,1.3-0.5,2.4-1.3,3.3s-2,1.3-3.3,1.3h-78.6H289.3z"/>
<path class="st0" d="M289.3,562.8c-1.3,0-2.4-0.5-3.3-1.3s-1.3-2-1.3-3.3V440.4V322.6c0-1.3,0.5-2.4,1.3-3.3s2-1.3,3.3-1.3h78.6
	h78.6c1.3,0,2.4,0.5,3.3,1.3s1.3,2,1.3,3.3v117.8v117.8c0,1.3-0.5,2.4-1.3,3.3s-2,1.3-3.3,1.3h-78.6H289.3z"/>
<path class="st0" d="M470.8,336.5c0-2.6,1-4.9,2.7-6.5s4-2.7,6.5-2.7s4.9,1,6.5,2.7s2.7,4,2.7,6.5s-1,4.9-2.7,6.5s-4,2.7-6.5,2.7
	s-4.9-1-6.5-2.7S470.8,339,470.8,336.5z"/>
<path class="st0" d="M470.8,546.4c0-2.6,1-4.9,2.7-6.5c1.7-1.7,4-2.7,6.5-2.7s4.9,1,6.5,2.7c1.7,1.7,2.7,4,2.7,6.5s-1,4.9-2.7,6.5
	c-1.7,1.7-4,2.7-6.5,2.7s-4.9-1-6.5-2.7C471.8,551.3,470.8,549,470.8,546.4z"/>
<path class="st0" d="M281.2,856.7c-1.8,0-3.4-1.1-4.6-2.9c-1.2-1.8-1.9-4.3-1.9-7V724.2V601.6c0-2.7,0.7-5.2,1.9-7
	c1.2-1.8,2.8-2.9,4.6-2.9h110.6h110.6c1.8,0,3.4,1.1,4.6,2.9c1.2,1.8,1.9,4.3,1.9,7v122.6v122.6c0,2.7-0.7,5.2-1.9,7
	c-1.2,1.8-2.8,2.9-4.6,2.9H391.8H281.2z"/>
<path class="st0" d="M289.3,846.6c-1.3,0-2.4-0.5-3.3-1.3s-1.3-2-1.3-3.3V724.2V606.4c0-1.3,0.5-2.4,1.3-3.3s2-1.3,3.3-1.3h78.6
	h78.6c1.3,0,2.4,0.5,3.3,1.3s1.3,2,1.3,3.3v117.8V842c0,1.3-0.5,2.4-1.3,3.3s-2,1.3-3.3,1.3h-78.6H289.3z"/>
<path class="st0" d="M289.3,846.6c-1.3,0-2.4-0.5-3.3-1.3s-1.3-2-1.3-3.3V724.2V606.4c0-1.3,0.5-2.4,1.3-3.3s2-1.3,3.3-1.3h78.6
	h78.6c1.3,0,2.4,0.5,3.3,1.3s1.3,2,1.3,3.3v117.8V842c0,1.3-0.5,2.4-1.3,3.3s-2,1.3-3.3,1.3h-78.6H289.3z"/>
<path class="st0" d="M470.8,620.3c0-2.6,1-4.9,2.7-6.5c1.7-1.7,4-2.7,6.5-2.7s4.9,1,6.5,2.7c1.7,1.7,2.7,4,2.7,6.5s-1,4.9-2.7,6.5
	c-1.7,1.7-4,2.7-6.5,2.7s-4.9-1-6.5-2.7C471.8,625.2,470.8,622.8,470.8,620.3z"/>
<path class="st0" d="M470.8,830.3c0-2.6,1-4.9,2.7-6.5c1.7-1.7,4-2.7,6.5-2.7s4.9,1,6.5,2.7c1.7,1.7,2.7,4,2.7,6.5s-1,4.9-2.7,6.5
	c-1.7,1.7-4,2.7-6.5,2.7s-4.9-1-6.5-2.7C471.8,835.1,470.8,832.8,470.8,830.3z"/>
<polyline class="st0" points="72.5,272.9 72.5,278 72.5,283.1 "/>
<polyline class="st0" points="149.8,272.9 149.8,278 149.8,283.1 "/>
<path class="st0" d="M24.6,572.9c-1.8,0-3.4-1.1-4.6-2.9c-1.2-1.8-1.9-4.3-1.9-7V440.4V317.7c0-2.7,0.7-5.2,1.9-7
	c1.2-1.8,2.8-2.9,4.6-2.9h110.6h110.6c1.8,0,3.4,1.1,4.6,2.9s1.9,4.3,1.9,7v122.6V563c0,2.7-0.7,5.2-1.9,7c-1.2,1.8-2.8,2.9-4.6,2.9
	H135.1H24.6z"/>
<path class="st0" d="M32.6,562.8c-1.3,0-2.4-0.5-3.3-1.3s-1.3-2-1.3-3.3V440.4V322.6c0-1.3,0.5-2.4,1.3-3.3s2-1.3,3.3-1.3h78.6h78.6
	c1.3,0,2.4,0.5,3.3,1.3s1.3,2,1.3,3.3v117.8v117.8c0,1.3-0.5,2.4-1.3,3.3s-2,1.3-3.3,1.3h-78.6H32.6z"/>
<path class="st0" d="M32.6,562.8c-1.3,0-2.4-0.5-3.3-1.3s-1.3-2-1.3-3.3V440.4V322.6c0-1.3,0.5-2.4,1.3-3.3s2-1.3,3.3-1.3h78.6h78.6
	c1.3,0,2.4,0.5,3.3,1.3s1.3,2,1.3,3.3v117.8v117.8c0,1.3-0.5,2.4-1.3,3.3s-2,1.3-3.3,1.3h-78.6H32.6z"/>
<path class="st0" d="M214.1,336.5c0-2.6,1-4.9,2.7-6.5s4-2.7,6.5-2.7s4.9,1,6.5,2.7s2.7,4,2.7,6.5s-1,4.9-2.7,6.5s-4,2.7-6.5,2.7
	s-4.9-1-6.5-2.7S214.1,339,214.1,336.5z"/>
<path class="st0" d="M214.1,546.4c0-2.6,1-4.9,2.7-6.5c1.7-1.7,4-2.7,6.5-2.7s4.9,1,6.5,2.7c1.7,1.7,2.7,4,2.7,6.5s-1,4.9-2.7,6.5
	c-1.7,1.7-4,2.7-6.5,2.7s-4.9-1-6.5-2.7C215.1,551.3,214.1,549,214.1,546.4z"/>
<polyline class="st0" points="72.5,562.8 72.5,567.8 72.5,572.9 "/>
<polyline class="st0" points="149.8,562.8 149.8,567.8 149.8,572.9 "/>
<path class="st0" d="M21.3,854c-1.8,0-3.4-1.1-4.6-2.9s-1.9-4.3-1.9-7V721.5V598.8c0-2.7,0.7-5.2,1.9-7s2.8-2.9,4.6-2.9h110.6h110.6
	c1.8,0,3.4,1.1,4.6,2.9s1.9,4.3,1.9,7v122.6v122.6c0,2.7-0.7,5.2-1.9,7s-2.8,2.9-4.6,2.9H131.9H21.3z"/>
<path class="st0" d="M29.3,843.9c-1.3,0-2.4-0.5-3.3-1.3s-1.3-2-1.3-3.3V721.5V603.7c0-1.3,0.5-2.4,1.3-3.3s2-1.3,3.3-1.3h78.6h78.6
	c1.3,0,2.4,0.5,3.3,1.3s1.3,2,1.3,3.3v117.8v117.8c0,1.3-0.5,2.4-1.3,3.3s-2,1.3-3.3,1.3h-78.6H29.3z"/>
<path class="st0" d="M29.3,843.9c-1.3,0-2.4-0.5-3.3-1.3s-1.3-2-1.3-3.3V721.5V603.7c0-1.3,0.5-2.4,1.3-3.3s2-1.3,3.3-1.3h78.6h78.6
	c1.3,0,2.4,0.5,3.3,1.3s1.3,2,1.3,3.3v117.8v117.8c0,1.3-0.5,2.4-1.3,3.3s-2,1.3-3.3,1.3h-78.6H29.3z"/>
<path class="st0" d="M210.8,617.6c0-2.6,1-4.9,2.7-6.5c1.7-1.7,4-2.7,6.5-2.7s4.9,1,6.5,2.7c1.7,1.7,2.7,4,2.7,6.5s-1,4.9-2.7,6.5
	c-1.7,1.7-4,2.7-6.5,2.7s-4.9-1-6.5-2.7C211.8,622.4,210.8,620.1,210.8,617.6z"/>
<path class="st0" d="M210.8,827.5c0-2.6,1-4.9,2.7-6.5c1.7-1.7,4-2.7,6.5-2.7s4.9,1,6.5,2.7c1.7,1.7,2.7,4,2.7,6.5s-1,4.9-2.7,6.5
	c-1.7,1.7-4,2.7-6.5,2.7s-4.9-1-6.5-2.7C211.8,832.4,210.8,830.1,210.8,827.5z"/>
<polyline class="st0" points="69.2,843.9 69.2,848.9 69.2,854 "/>
<polyline class="st0" points="146.5,843.9 146.5,848.9 146.5,854 "/>
<path class="st0" d="M547.9,285.1c-1.8,0-3.4-1.1-4.6-2.9c-1.2-1.8-1.9-4.3-1.9-7V152.5V29.9c0-2.7,0.7-5.2,1.9-7s2.8-2.9,4.6-2.9
	h110.6h110.6c1.8,0,3.4,1.1,4.6,2.9c1.2,1.8,1.9,4.3,1.9,7v122.6v122.6c0,2.7-0.7,5.2-1.9,7c-1.2,1.8-2.8,2.9-4.6,2.9H658.5H547.9z"
	/>
<path class="st0" d="M737.5,48.6c0-2.6,1-4.9,2.7-6.5c1.7-1.7,4-2.7,6.5-2.7s4.9,1,6.5,2.7c1.7,1.7,2.7,4,2.7,6.5s-1,4.9-2.7,6.5
	c-1.7,1.7-4,2.7-6.5,2.7s-4.9-1-6.5-2.7C738.5,53.5,737.5,51.2,737.5,48.6z"/>
<path class="st0" d="M737.5,258.6c0-2.6,1-4.9,2.7-6.5c1.7-1.7,4-2.7,6.5-2.7s4.9,1,6.5,2.7c1.7,1.7,2.7,4,2.7,6.5s-1,4.9-2.7,6.5
	c-1.7,1.7-4,2.7-6.5,2.7s-4.9-1-6.5-2.7C738.5,263.5,737.5,261.2,737.5,258.6z"/>
<path class="st0" d="M547.9,572.9c-1.8,0-3.4-1.1-4.6-2.9c-1.2-1.8-1.9-4.3-1.9-7V440.4V317.7c0-2.7,0.7-5.2,1.9-7s2.8-2.9,4.6-2.9
	h110.6h110.6c1.8,0,3.4,1.1,4.6,2.9c1.2,1.8,1.9,4.3,1.9,7v122.6V563c0,2.7-0.7,5.2-1.9,7c-1.2,1.8-2.8,2.9-4.6,2.9H658.5H547.9z"/>
<path class="st0" d="M658.2,447.6h16.9H692c3.3,0,6.3,1.4,8.5,3.5c2.2,2.2,3.5,5.2,3.5,8.5v8.9v8.9c0,3.3-1.3,6.3-3.5,8.5
	c-2.2,2.2-5.2,3.5-8.5,3.5h-16.9h-16.9c-3.3,0-6.3-1.4-8.5-3.5c-2.2-2.2-3.5-5.2-3.5-8.5v-8.9v-8.9c0-3.3,1.3-6.3,3.5-8.5
	C651.9,448.9,654.9,447.6,658.2,447.6z"/>
<path class="st0" d="M575.1,447.6H592h16.9c3.3,0,6.3,1.4,8.5,3.5c2.2,2.2,3.5,5.2,3.5,8.5v8.9v8.9c0,3.3-1.3,6.3-3.5,8.5
	c-2.2,2.2-5.2,3.5-8.5,3.5H592h-16.9c-3.3,0-6.3-1.4-8.5-3.5c-2.2-2.2-3.5-5.2-3.5-8.5v-8.9v-8.9c0-3.3,1.3-6.3,3.5-8.5
	C568.8,448.9,571.8,447.6,575.1,447.6z"/>
<path class="st0" d="M658.2,388.2h16.9H692c3.3,0,6.3,1.4,8.5,3.5c2.2,2.2,3.5,5.2,3.5,8.5v8.9v8.9c0,3.3-1.3,6.3-3.5,8.5
	c-2.2,2.2-5.2,3.5-8.5,3.5h-16.9h-16.9c-3.3,0-6.3-1.4-8.5-3.5c-2.2-2.2-3.5-5.2-3.5-8.5v-8.9v-8.9c0-3.3,1.3-6.3,3.5-8.5
	C651.9,389.6,654.9,388.2,658.2,388.2z"/>
<path class="st0" d="M575.1,388.2H592h16.9c3.3,0,6.3,1.4,8.5,3.5c2.2,2.2,3.5,5.2,3.5,8.5v8.9v8.9c0,3.3-1.3,6.3-3.5,8.5
	c-2.2,2.2-5.2,3.5-8.5,3.5H592h-16.9c-3.3,0-6.3-1.4-8.5-3.5c-2.2-2.2-3.5-5.2-3.5-8.5v-8.9v-8.9c0-3.3,1.3-6.3,3.5-8.5
	C568.8,389.6,571.8,388.2,575.1,388.2z"/>
<path class="st0" d="M658.2,326.1h16.9H692c3.3,0,6.3,1.4,8.5,3.5c2.2,2.2,3.5,5.2,3.5,8.5v8.9v8.9c0,3.3-1.3,6.3-3.5,8.5
	c-2.2,2.2-5.2,3.5-8.5,3.5h-16.9h-16.9c-3.3,0-6.3-1.4-8.5-3.5c-2.2-2.2-3.5-5.2-3.5-8.5v-8.9v-8.9c0-3.3,1.3-6.3,3.5-8.5
	C651.9,327.4,654.9,326.1,658.2,326.1z"/>
<path class="st0" d="M615.7,510.6h16.9h16.9c3.3,0,6.3,1.4,8.5,3.5c2.2,2.2,3.5,5.2,3.5,8.5v8.9v8.9c0,3.3-1.3,6.3-3.5,8.5
	c-2.2,2.2-5.2,3.5-8.5,3.5h-16.9h-16.9c-3.3,0-6.3-1.3-8.5-3.5c-2.2-2.2-3.5-5.2-3.5-8.5v-8.9v-8.9c0-3.3,1.4-6.3,3.5-8.5
	C609.4,511.9,612.4,510.6,615.7,510.6z"/>
<path class="st0" d="M576,326.1h16.9h16.9c3.3,0,6.3,1.4,8.5,3.5c2.2,2.2,3.5,5.2,3.5,8.5v8.9v8.9c0,3.3-1.3,6.3-3.5,8.5
	c-2.2,2.2-5.2,3.5-8.5,3.5h-16.9H576c-3.3,0-6.3-1.4-8.5-3.5c-2.2-2.2-3.5-5.2-3.5-8.5v-8.9v-8.9c0-3.3,1.3-6.3,3.5-8.5
	C569.7,327.4,572.7,326.1,576,326.1z"/>
<path class="st0" d="M769.1,591.6c1.8,0,3.4,1.1,4.6,2.9c1.2,1.8,1.9,4.3,1.9,7v122.6v122.6c0,2.7-0.7,5.2-1.9,7s-2.8,2.9-4.6,2.9
	H658.5H547.9c-1.8,0-3.4-1.1-4.6-2.9c-1.2-1.8-1.9-4.3-1.9-7V724.2V601.5c0-2.7,0.7-5.2,1.9-7c1.2-1.8,2.8-2.9,4.6-2.9h110.6H769.1z
	"/>
<path class="st0" d="M579.6,828.1c0,2.6-1,4.9-2.7,6.5c-1.7,1.7-4,2.7-6.5,2.7s-4.9-1-6.5-2.7c-1.7-1.7-2.7-4-2.7-6.5s1-4.9,2.7-6.5
	c1.7-1.7,4-2.7,6.5-2.7s4.9,1,6.5,2.7C578.5,823.2,579.6,825.5,579.6,828.1z"/>
<path class="st0" d="M579.6,618.1c0,2.6-1,4.9-2.7,6.5c-1.7,1.7-4,2.7-6.5,2.7s-4.9-1-6.5-2.7c-1.7-1.7-2.7-4-2.7-6.5s1-4.9,2.7-6.5
	c1.7-1.7,4-2.7,6.5-2.7s4.9,1,6.5,2.7C578.5,613.2,579.6,615.5,579.6,618.1z"/>
<path class="st0" d="M547.9,572.9c-1.8,0-3.4-1.1-4.6-2.9c-1.2-1.8-1.9-4.3-1.9-7V440.4V317.7c0-2.7,0.7-5.2,1.9-7s2.8-2.9,4.6-2.9
	h110.6h110.6c1.8,0,3.4,1.1,4.6,2.9c1.2,1.8,1.9,4.3,1.9,7v122.6V563c0,2.7-0.7,5.2-1.9,7c-1.2,1.8-2.8,2.9-4.6,2.9H658.5H547.9z"/>
<path class="st0" d="M737.5,336.5c0-2.6,1-4.9,2.7-6.5c1.7-1.7,4-2.7,6.5-2.7s4.9,1,6.5,2.7c1.7,1.7,2.7,4,2.7,6.5s-1,4.9-2.7,6.5
	c-1.7,1.7-4,2.7-6.5,2.7s-4.9-1-6.5-2.7C738.5,341.3,737.5,339,737.5,336.5z"/>
<path class="st0" d="M737.5,546.4c0-2.6,1-4.9,2.7-6.5c1.7-1.7,4-2.7,6.5-2.7s4.9,1,6.5,2.7c1.7,1.7,2.7,4,2.7,6.5s-1,4.9-2.7,6.5
	c-1.7,1.7-4,2.7-6.5,2.7s-4.9-1-6.5-2.7C738.5,551.3,737.5,549,737.5,546.4z"/>
<path class="st0" d="M769.1,591.6c1.8,0,3.4,1.1,4.6,2.9c1.2,1.8,1.9,4.3,1.9,7v122.6v122.6c0,2.7-0.7,5.2-1.9,7s-2.8,2.9-4.6,2.9
	H658.5H547.9c-1.8,0-3.4-1.1-4.6-2.9c-1.2-1.8-1.9-4.3-1.9-7V724.2V601.5c0-2.7,0.7-5.2,1.9-7c1.2-1.8,2.8-2.9,4.6-2.9h110.6H769.1z
	"/>
<path class="st0" d="M765.7,724.2V842c0,1.3-0.5,2.4-1.3,3.3c-0.8,0.8-2,1.3-3.3,1.3h-78.6l-78.6,0c-1.3,0-2.4-0.5-3.3-1.3
	c-0.8-0.8-1.3-2-1.3-3.3l0-117.8"/>
<path class="st0" d="M765.7,724.2V842c0,1.3-0.5,2.4-1.3,3.3c-0.8,0.8-2,1.3-3.3,1.3h-78.6l-78.6,0c-1.3,0-2.4-0.5-3.3-1.3
	c-0.8-0.8-1.3-2-1.3-3.3l0-117.8"/>
<polygon class="st0" points="765.7,724.3 682.5,724.3 599.3,724.3 599.3,754.8 599.3,785.4 682.5,785.4 765.7,785.4 765.7,754.8 "/>
<polyline class="st0" points="682.5,663 682.5,754.8 682.5,846.6 "/>
<text transform="matrix(8.979331e-11 -1 1 8.979331e-11 576.33 763.4512)" class="st1 st2 st3">bearaille</text>
<g>
	<path class="st4" d="M677,650.8c-5.6-7.5-6.2-10.9-2.9-13.9c3.5-3.2,11.5-3.1,14.8,0.2c3.2,3.2,2.5,6.7-3,13.5
		c2.4,0.5,4.4,1.1,6.4,1.2c2.1,0.1,2.7,1,2.7,2.9c0,2.2-1.4,2.5-3,2.2c-2.6-0.5-5.3-0.8-7.6-1.9c-2.3-1.1-4-0.8-6.2,0.1
		c-2.4,1-5.1,1.3-7.7,1.8c-1.6,0.3-2.9-0.1-2.9-2.3c0-2,0.6-2.9,2.7-2.9C672.4,651.8,674.4,651.2,677,650.8z"/>
	<path class="st0" d="M715.7,621.7c-1.1-3.3,0.1-4.6,2.8-4.7c2.3-0.1,4.7-0.2,7,0c5.5,0.6,9.1,4.1,10,9.5c0.9,6.1-1.5,11.7-6.8,13.7
		c-3.4,1.3-4.2,3.2-3.9,6.4c0.2,2.6,0,5.3,0.1,8c0,1.8-0.7,2.4-2.5,2.4"/>
	<path class="st1" d="M722.3,657c-1.9,0-2.7-0.6-2.7-2.5c0.1-4.5,0.1-8.9,0-13.4c0-1.9,0.7-2.5,2.5-2.8c3.9-0.5,6.7-2.6,7.7-6.6
		c1.8-7.1-2.9-12-10.1-10.9c-1.3,0.2-2.7,0.5-4.1,0.8"/>
	<path class="st0" d="M640.6,657.1c-2,0-2.6-0.9-2.5-2.7c0.1-3.3-0.1-6.6,0-9.9c0.1-1.9-0.6-2.9-2.4-3.5c-4.9-1.6-7.7-5.1-8.3-10.2
		c-1-8.6,3.7-13.8,12.4-13.9c1.6,0,3.2,0,4.8,0.2c2.7,0.2,3.8,1.6,2.6,4.6"/>
	<path class="st1" d="M647.1,621.7c-1.7-0.3-3.3-0.7-4.8-0.8c-5.3-0.6-8.9,2-9.8,6.9c-0.8,4.7,2.1,9.7,6.8,10.3
		c3.8,0.5,4,2.4,3.9,5.3c-0.2,3.7-0.1,7.4,0,11.2c0,1.9-0.7,2.6-2.6,2.6"/>
	<path class="st4" d="M657.5,647.4c-4.2,0-7.3-3.3-7.3-7.6c0-4.2,3.4-7.4,7.6-7.3c4.1,0.1,7.1,3.2,7.1,7.4
		C664.9,644.3,661.7,647.5,657.5,647.4z"/>
	<path class="st4" d="M712.1,640.3c-0.1,4.3-3.5,7.4-7.6,7.2c-3.9-0.2-7.1-3.6-7-7.6c0.1-4.1,3.5-7.4,7.6-7.3
		C709.4,632.6,712.3,635.8,712.1,640.3z"/>
</g>
<path class="st0" d="M647.1,621.7c0-9.9,15.3-17.9,34.1-17.9"/>
<path class="st0" d="M715.7,621.7c0-9.9-15.4-17.9-34.4-17.9"/>
<line class="st0" x1="640.6" y1="657.1" x2="640.6" y2="663"/>
<line class="st0" x1="722.3" y1="657" x2="722.3" y2="663"/>
<text transform="matrix(-1.795865e-10 1 -1 -1.795865e-10 564.0146 39.3752)" class="st1 st2 st5">jbw</text>
<text transform="matrix(-1.795865e-10 1 -1 -1.795865e-10 564.0146 249.36)" class="st1 st2 st5">2016</text>
<path class="st0" d="M599.3,785.4V667.6c0-1.3,0.5-2.4,1.3-3.3s2-1.3,3.3-1.3h78.6h78.6c1.3,0,2.4,0.5,3.3,1.3s1.3,2,1.3,3.3v117.8"
	/>
</svg>
