<?xml version='1.0' encoding='utf-8'?>
<!DOCTYPE svg>
<!-- Generator: Adobe Illustrator 15.1.0, SVG Export Plug-In . SVG Version: 6.00 Build 0)  -->
<svg xmlns="http://www.w3.org/2000/svg" x="0px" y="0px" height="1.7in" width="1.2in" xml:space="preserve" version="1.1" text-rendering="geometricPrecision" shape-rendering="geometricPrecision" enable-background="new 0 0 86.4 122.4" xmlns:xml="http://www.w3.org/XML/1998/namespace" gorn="0"  id="Layer_1" image-rendering="optimizeQuality" viewBox="0 0 86.4 122.4">
    <desc >
        <referenceFile >photon_DIP_24_700mil_schematic.svg</referenceFile>
    </desc>
    <g >
        <g >
            <path d="M79.2,7.632h-72V6.84h72l0.36,0.36L79.2,7.632z M79.2,7.632V6.84l0,0l0,0h0.072l0,0l0,0l0,0h0.072v0.072l0,0l0,0h0.071l0,0l0,0l0,0l0,0l0.072,0.072l0,0l0,0l0,0l0,0v0.072h0.072l0,0l0,0v0.071l0,0l0,0l0,0V7.2l0,0l0,0l0,0v0.072l0,0l0,0l0,0v0.071l0,0l0,0l0,0v0.072l0,0h-0.072l0,0v0.072l0,0l0,0l0,0h-0.072l0,0V7.56l0,0l0,0h-0.071l0,0l0,0l0,0h-0.072v0.071l0,0l0,0H79.2L79.2,7.632L79.2,7.632z M78.84,115.2V7.2h0.721v108l-0.36,0.432L78.84,115.2z M78.84,115.2h0.721v0.072l0,0l0,0l0,0v0.071l0,0l0,0l0,0v0.072l0,0h-0.072l0,0v0.072l0,0l0,0l0,0h-0.072l0,0v0.072l0,0l0,0h-0.071l0,0l0,0l0,0h-0.072l0,0v0.071l0,0H79.2l0,0l0,0l0,0h-0.072l0,0l0,0v-0.071h-0.071l0,0l0,0l0,0h-0.072l0,0l0,0l0,0v-0.072h-0.072l0,0l0,0l0,0l0,0v-0.072H78.84l0,0l0,0v-0.072l0,0l0,0l0,0v-0.071l0,0l0,0l0,0V115.2z M7.2,114.84h72v0.792h-72L6.84,115.2L7.2,114.84z M7.2,114.84v0.792l0,0H7.128l0,0l0,0v-0.071H7.056l0,0l0,0l0,0H6.984l0,0l0,0l0,0v-0.072H6.912l0,0l0,0l0,0l0,0v-0.072H6.84l0,0l0,0v-0.072l0,0l0,0l0,0v-0.071l0,0l0,0l0,0V115.2l0,0l0,0l0,0v-0.072l0,0l0,0l0,0v-0.071l0,0l0,0l0,0l0.072-0.072l0,0l0,0l0,0l0,0v-0.072h0.072l0,0l0,0l0,0l0,0h0.072v-0.072l0,0l0,0h0.071l0,0l0,0l0,0H7.2L7.2,114.84z M7.56,7.2v108H6.84V7.2L7.2,6.84L7.56,7.2z M7.56,7.2H6.84l0,0l0,0l0,0V7.128l0,0l0,0l0,0V7.056l0,0l0,0l0,0l0.072-0.072l0,0l0,0l0,0l0,0V6.912h0.072l0,0l0,0l0,0l0,0h0.072l0,0V6.84l0,0h0.071l0,0l0,0l0,0H7.2l0,0l0,0l0,0h0.072l0,0l0,0l0,0h0.072v0.072l0,0l0,0h0.071l0,0l0,0l0,0l0,0l0.072,0.072l0,0l0,0l0,0l0,0v0.072H7.56l0,0l0,0v0.071l0,0l0,0l0,0V7.2L7.56,7.2L7.56,7.2L7.56,7.2z" />
        </g>
        <path d="M27.936,9.792h0.359l-0.792,2.448h-0.288l-0.863-2.448h0.359l0.504,1.584c0,0.072,0,0.145,0.072,0.288c0,0.072,0,0.145,0.072,0.216c0-0.071,0-0.144,0.072-0.216c0-0.144,0-0.216,0.071-0.359L27.936,9.792z M29.304,12.24H28.44v-0.144l0.288-0.072V10.08l-0.288-0.072V9.792h0.864v0.216l-0.288,0.072v1.944l0.288,0.072V12.24z M31.608,12.24h-0.433l-1.079-2.016h-0.072c0,0.071,0.072,0.144,0.072,0.288c0,0.071,0,0.144,0,0.216c0,0.071,0,0.144,0,0.216v1.296h-0.288V9.792h0.359l1.152,2.017l0,0c0-0.072,0-0.145,0-0.288c0,0,0,0,0-0.072s-0.072-0.072-0.072-0.144v-0.072c0-0.072,0-0.072,0-0.072V9.792h0.36V12.24z" />
        <path d="M12.528,37.152H12.24v-2.16h-0.72v-0.288h1.728v0.288h-0.72V37.152z M15.12,37.152h-0.36l-0.575-1.08l-0.576,1.08h-0.36l0.792-1.296l-0.72-1.152h0.36l0.504,0.937l0.575-0.937h0.288L14.4,35.856L15.12,37.152z" />
        <path d="M12.168,43.344v1.009h-0.359v-2.448h0.647c0.288,0,0.504,0.072,0.648,0.216c0.144,0.072,0.216,0.288,0.216,0.504c0,0.072-0.072,0.145-0.072,0.216c0,0.072-0.072,0.145-0.072,0.217c-0.071,0.071-0.144,0.071-0.216,0.144c0,0-0.071,0.072-0.144,0.072l0.647,1.08h-0.359l-0.576-1.009H12.168z M12.168,43.128h0.216c0.145,0,0.217-0.071,0.288-0.071c0.072,0,0.145-0.072,0.145-0.072c0.072-0.072,0.072-0.072,0.144-0.145c0-0.071,0-0.144,0-0.216s0-0.144,0-0.216c-0.071,0-0.071-0.072-0.144-0.072c0-0.071-0.072-0.071-0.145-0.144c-0.071,0-0.144,0-0.288,0h-0.216V43.128z M15.336,44.352h-0.288l-0.647-1.08l-0.576,1.08h-0.288l0.72-1.296l-0.72-1.152h0.36l0.576,0.936l0.504-0.936h0.359l-0.72,1.152L15.336,44.352z" />
        <path d="M42.12,10.368c0,0.072,0,0.145,0,0.216c-0.072,0.072-0.072,0.145-0.144,0.216c0,0-0.072,0.072-0.145,0.072c-0.072,0.072-0.144,0.072-0.216,0.072l0,0c0.216,0.072,0.36,0.144,0.432,0.216c0.145,0.072,0.145,0.216,0.145,0.36c0,0.144,0,0.216,0,0.288c-0.072,0.144-0.145,0.216-0.216,0.288c-0.072,0-0.145,0.071-0.217,0.144c-0.144,0-0.287,0-0.432,0c-0.144,0-0.216,0-0.36,0c-0.071,0-0.216-0.072-0.287-0.072V11.88c0.144,0,0.216,0.072,0.359,0.072c0.072,0.072,0.216,0.072,0.288,0.072s0.216,0,0.288-0.072c0.072,0,0.144,0,0.144-0.072c0.072-0.071,0.072-0.071,0.145-0.144c0-0.072,0-0.145,0-0.216c0-0.072,0-0.145,0-0.145c-0.072-0.071-0.072-0.144-0.145-0.144c-0.071-0.072-0.144-0.072-0.216-0.072c-0.071-0.072-0.144-0.072-0.288-0.072H41.04v-0.216h0.216c0.145,0,0.217,0,0.288-0.072c0.072,0,0.072,0,0.145-0.071c0.071-0.072,0.071-0.072,0.144-0.145c0-0.071,0-0.144,0-0.216c0,0,0-0.072,0-0.144c-0.072,0-0.072-0.072-0.072-0.072c-0.071-0.072-0.144-0.072-0.144-0.072c-0.072-0.072-0.144-0.072-0.216-0.072s-0.216,0.072-0.288,0.072c-0.072,0.072-0.145,0.072-0.288,0.145l-0.144-0.217c0.071,0,0.144-0.071,0.144-0.071c0.072,0,0.144-0.072,0.216-0.072c0,0,0.072-0.072,0.145-0.072c0.071,0,0.144,0,0.216,0c0.144,0,0.216,0,0.359,0c0.072,0.072,0.145,0.072,0.217,0.145c0.071,0.071,0.071,0.144,0.144,0.216C42.12,10.224,42.12,10.296,42.12,10.368z M43.992,9.792h0.36L43.56,12.24H43.2l-0.792-2.448h0.36l0.504,1.584c0,0.072,0,0.145,0.072,0.288c0,0.072,0,0.145,0.071,0.216c0-0.071,0-0.144,0-0.216c0.072-0.144,0.072-0.216,0.145-0.359L43.992,9.792z M45.936,10.368c0,0.072,0,0.145-0.072,0.216c0,0.072,0,0.145-0.072,0.216c-0.071,0-0.071,0.072-0.144,0.072c-0.072,0.072-0.145,0.072-0.216,0.072l0,0c0.144,0.072,0.288,0.144,0.432,0.216c0.072,0.072,0.144,0.216,0.144,0.36c0,0.144,0,0.216-0.071,0.288c0,0.144-0.072,0.216-0.145,0.288c-0.071,0-0.144,0.071-0.288,0.144c-0.071,0-0.216,0-0.359,0c-0.145,0-0.288,0-0.36,0c-0.144,0-0.216-0.072-0.288-0.072V11.88c0.072,0,0.216,0.072,0.288,0.072c0.145,0.072,0.216,0.072,0.36,0.072c0.071,0,0.144,0,0.216-0.072c0.072,0,0.144,0,0.216-0.072c0-0.071,0.072-0.071,0.072-0.144c0.072-0.072,0.072-0.145,0.072-0.216c0-0.072,0-0.145-0.072-0.145c0-0.071-0.072-0.144-0.145-0.144c0-0.072-0.071-0.072-0.144-0.072c-0.072-0.072-0.216-0.072-0.288-0.072h-0.216v-0.216h0.216c0.072,0,0.144,0,0.216-0.072c0.072,0,0.145,0,0.216-0.071c0-0.072,0.072-0.072,0.072-0.145c0.072-0.071,0.072-0.144,0.072-0.216c0,0,0-0.072-0.072-0.144c0,0,0-0.072-0.072-0.072c0-0.072-0.071-0.072-0.144-0.072c0-0.072-0.072-0.072-0.145-0.072c-0.144,0-0.216,0.072-0.287,0.072c-0.145,0.072-0.217,0.072-0.288,0.145l-0.145-0.217c0.072,0,0.072-0.071,0.145-0.071c0.071,0,0.071-0.072,0.144-0.072S44.928,9.792,45,9.792c0.072,0,0.145,0,0.216,0c0.145,0,0.217,0,0.288,0c0.145,0.072,0.217,0.072,0.217,0.145c0.071,0.071,0.144,0.144,0.144,0.216C45.936,10.224,45.936,10.296,45.936,10.368z" />
        <path d="M12.168,21.816v1.008h-0.359v-2.448h0.647c0.288,0,0.504,0.072,0.648,0.216c0.144,0.072,0.216,0.288,0.216,0.505c0,0.071-0.072,0.144-0.072,0.216c0,0.071-0.072,0.144-0.072,0.216c-0.071,0.072-0.144,0.072-0.216,0.144c0,0-0.071,0-0.144,0.072l0.647,1.08h-0.359l-0.576-1.008H12.168z M12.168,21.528h0.216c0.145,0,0.217,0,0.288,0c0.072,0,0.145-0.072,0.145-0.072c0.072-0.072,0.072-0.144,0.144-0.144c0-0.072,0-0.145,0-0.216c0-0.072,0-0.145,0-0.217c-0.071-0.071-0.071-0.071-0.144-0.144c0,0-0.072-0.072-0.145-0.072c-0.071,0-0.144,0-0.288,0h-0.216V21.528z M15.12,22.176c0,0.072,0,0.217-0.072,0.288c0,0.072-0.071,0.145-0.144,0.217c-0.072,0.071-0.145,0.071-0.288,0.144c-0.072,0-0.216,0-0.288,0c-0.144,0-0.288,0-0.36,0c-0.144,0-0.216-0.072-0.287-0.072v-0.288c0.071,0,0.071,0,0.144,0c0,0.072,0.072,0.072,0.144,0.072c0.072,0,0.072,0,0.145,0c0.072,0.072,0.144,0.072,0.144,0.072c0.217,0,0.36-0.072,0.433-0.145c0.071-0.071,0.144-0.144,0.144-0.288c0-0.071,0-0.071-0.072-0.144c0-0.072,0-0.072-0.071-0.144c0,0-0.072-0.072-0.145-0.072c-0.071-0.072-0.144-0.072-0.288-0.145c-0.071,0-0.144-0.071-0.216-0.071c-0.072-0.072-0.144-0.145-0.216-0.217c0,0-0.072-0.071-0.072-0.144s-0.071-0.144-0.071-0.288c0-0.072,0.071-0.144,0.071-0.216c0.072-0.072,0.072-0.145,0.145-0.216c0.071-0.072,0.144-0.072,0.216-0.145c0.144,0,0.216,0,0.36,0c0.071,0,0.216,0,0.287,0c0.145,0.072,0.217,0.072,0.288,0.145l-0.071,0.216c-0.072,0-0.145-0.072-0.288-0.072c-0.072,0-0.145,0-0.216,0c-0.145,0-0.288,0-0.36,0.072s-0.072,0.144-0.072,0.216s0,0.145,0,0.216l0.072,0.072c0.072,0.072,0.072,0.072,0.144,0.144c0.072,0,0.145,0.072,0.288,0.072c0.072,0.072,0.145,0.072,0.216,0.145c0.072,0,0.145,0.071,0.217,0.144c0.071,0.072,0.071,0.072,0.071,0.145C15.12,21.96,15.12,22.104,15.12,22.176z M16.272,22.824h-0.288v-2.16h-0.648v-0.288h1.656v0.288h-0.72V22.824z" />
        <path d="M33.696,111.168h0.792v1.152c-0.072,0-0.144,0.072-0.216,0.072c0,0-0.072,0-0.145,0c-0.071,0.071-0.144,0.071-0.216,0.071s-0.144,0-0.216,0c-0.216,0-0.36-0.071-0.504-0.071c-0.072-0.072-0.216-0.145-0.288-0.288c-0.145-0.072-0.216-0.216-0.216-0.36c-0.072-0.144-0.072-0.36-0.072-0.504c0-0.216,0-0.36,0.072-0.576c0.071-0.144,0.144-0.288,0.216-0.359c0.072-0.072,0.216-0.217,0.36-0.217c0.144-0.071,0.359-0.144,0.504-0.144c0.144,0,0.288,0.072,0.359,0.072c0.145,0,0.217,0.071,0.288,0.071l-0.071,0.288c-0.072,0-0.072,0-0.145-0.071c-0.072,0-0.072,0-0.144,0c-0.072,0-0.072-0.072-0.145-0.072s-0.072,0-0.144,0c-0.145,0-0.288,0-0.36,0.072c-0.144,0.071-0.216,0.144-0.288,0.216c-0.072,0.071-0.072,0.144-0.144,0.288c0,0.144-0.072,0.288-0.072,0.432s0.072,0.216,0.072,0.36c0,0.144,0.071,0.216,0.144,0.288c0.072,0.144,0.145,0.144,0.288,0.216c0.072,0.071,0.216,0.071,0.36,0.071c0,0,0.071,0,0.144,0h0.072c0.072,0,0.072,0,0.144,0c0,0,0,0,0.072-0.071v-0.721h-0.504V111.168z M36.864,112.392h-0.36l-1.151-1.944l0,0c0,0.072,0,0.144,0,0.216s0,0.145,0,0.216c0,0.072,0,0.145,0,0.217v1.296h-0.288v-2.376h0.359l1.152,1.943l0,0c0-0.071,0-0.144,0-0.216v-0.072c0-0.071,0-0.144,0-0.144c0-0.072,0-0.072,0-0.072c0-0.072,0-0.072,0-0.144v-1.296h0.288V112.392z M39.312,111.168c0,0.216,0,0.433-0.072,0.576c-0.072,0.145-0.144,0.288-0.216,0.36c-0.145,0.144-0.216,0.216-0.36,0.216c-0.144,0.072-0.359,0.072-0.504,0.072h-0.647v-2.376h0.72c0.144,0,0.288,0,0.432,0.071c0.145,0.072,0.216,0.145,0.36,0.217c0.072,0.071,0.144,0.216,0.216,0.359C39.312,110.808,39.312,111.024,39.312,111.168z M38.952,111.168c0-0.144,0-0.288,0-0.359c-0.072-0.145-0.144-0.217-0.216-0.288c0-0.072-0.145-0.145-0.216-0.216c-0.072,0-0.216-0.072-0.36-0.072h-0.288v1.943h0.216c0.288,0,0.504-0.071,0.648-0.287C38.88,111.744,38.952,111.528,38.952,111.168z" />
        <path d="M72.36,50.4c0,0.216-0.072,0.432-0.072,0.576c-0.072,0.144-0.144,0.288-0.288,0.359c-0.071,0.145-0.216,0.216-0.359,0.216c-0.145,0.072-0.288,0.072-0.504,0.072H70.56v-2.376h0.647c0.216,0,0.36,0,0.504,0.072c0.145,0.072,0.217,0.144,0.36,0.216c0.072,0.072,0.144,0.216,0.216,0.36C72.288,50.04,72.36,50.256,72.36,50.4z M72,50.4c0-0.145,0-0.288-0.071-0.36c0-0.144-0.072-0.216-0.145-0.288c-0.072-0.071-0.144-0.144-0.216-0.216c-0.145,0-0.216,0-0.36,0h-0.359v1.872h0.288c0.287,0,0.504-0.072,0.647-0.288C71.928,50.976,72,50.76,72,50.4z M73.008,51.624l0.937-2.088H72.72v-0.288h1.512v0.216l-0.864,2.16H73.008z" />
        <path d="M72.36,57.6c0,0.216-0.072,0.432-0.072,0.575c-0.072,0.145-0.144,0.288-0.288,0.36c-0.071,0.145-0.216,0.216-0.359,0.216c-0.145,0.072-0.288,0.072-0.504,0.072H70.56v-2.376h0.647c0.216,0,0.36,0,0.504,0.072c0.145,0.071,0.217,0.144,0.288,0.216c0.145,0.072,0.216,0.216,0.288,0.36C72.288,57.24,72.36,57.456,72.36,57.6z M72,57.6c0-0.145,0-0.288-0.071-0.36c0-0.144-0.072-0.216-0.145-0.288s-0.144-0.144-0.216-0.216c-0.145,0-0.216-0.072-0.36-0.072h-0.359v1.944h0.288c0.287,0,0.504-0.072,0.647-0.288C71.928,58.176,72,57.96,72,57.6z M72.72,57.816c0-0.145,0-0.216,0-0.36c0.071-0.072,0.071-0.216,0.071-0.288c0.072-0.144,0.072-0.216,0.145-0.288c0.071-0.144,0.071-0.216,0.216-0.288c0.072-0.071,0.144-0.071,0.216-0.144c0.145,0,0.288-0.072,0.432-0.072c0,0,0,0,0.072,0c0,0,0,0,0.072,0c0,0.072,0.072,0.072,0.072,0.072s0,0,0.071,0v0.216c-0.071,0-0.071,0-0.144,0s-0.072,0-0.145,0c-0.071,0-0.216,0-0.287,0c-0.072,0.072-0.145,0.072-0.145,0.145c-0.072,0-0.144,0.071-0.144,0.144c-0.072,0.072-0.072,0.145-0.145,0.216c0,0.072,0,0.145,0,0.216c0,0.072,0,0.145-0.072,0.217h0.072c0,0,0-0.072,0.072-0.072c0-0.072,0.072-0.072,0.072-0.072c0.071-0.072,0.144-0.072,0.144-0.072c0.072,0,0.145-0.071,0.216-0.071c0.072,0,0.216,0.071,0.288,0.071c0.072,0.072,0.145,0.072,0.216,0.145c0.072,0.072,0.072,0.144,0.145,0.216c0,0.145,0,0.216,0,0.36c0,0.071,0,0.216,0,0.288c-0.072,0.144-0.145,0.216-0.145,0.288c-0.071,0.071-0.144,0.144-0.288,0.144c-0.071,0.072-0.144,0.072-0.287,0.072c-0.072,0-0.217,0-0.288-0.072c-0.145-0.072-0.217-0.144-0.288-0.216c-0.072-0.072-0.072-0.145-0.145-0.288C72.72,58.176,72.72,58.032,72.72,57.816z M73.512,58.608c0.071,0,0.144,0,0.216,0c0,0,0.071-0.072,0.144-0.145c0,0,0-0.071,0.072-0.144c0-0.072,0-0.145,0-0.216c0-0.072,0-0.145,0-0.216c0-0.072-0.072-0.145-0.072-0.145C73.8,57.672,73.8,57.6,73.728,57.6c-0.072,0-0.145,0-0.216,0c-0.072,0-0.145,0-0.217,0c0,0.071-0.071,0.071-0.144,0.144c0,0-0.072,0.072-0.072,0.145c0,0-0.072,0.071-0.072,0.144s0.072,0.144,0.072,0.216s0,0.145,0.072,0.216c0.072,0,0.072,0.072,0.144,0.145C73.368,58.608,73.44,58.608,73.512,58.608z" />
        <path d="M72.36,64.8c0,0.217,0,0.433-0.072,0.576c-0.072,0.145-0.144,0.288-0.216,0.36c-0.144,0.144-0.216,0.216-0.36,0.216c-0.144,0.072-0.359,0.072-0.504,0.072H70.56v-2.376h0.72c0.144,0,0.288,0,0.432,0.072c0.145,0.071,0.288,0.144,0.36,0.216c0.072,0.071,0.144,0.216,0.216,0.359C72.36,64.44,72.36,64.656,72.36,64.8z M72.072,64.8c0-0.144-0.072-0.287-0.072-0.359c-0.071-0.145-0.071-0.216-0.144-0.288s-0.216-0.145-0.288-0.216c-0.072,0-0.216-0.072-0.36-0.072H70.92v1.944h0.217c0.287,0,0.504-0.072,0.72-0.288C72,65.376,72.072,65.16,72.072,64.8z M73.44,64.584c0.144,0,0.216,0,0.359,0c0.072,0.072,0.145,0.145,0.217,0.145c0.071,0.071,0.144,0.144,0.144,0.216c0.072,0.144,0.072,0.216,0.072,0.36c0,0.071,0,0.216-0.072,0.287c0,0.145-0.072,0.217-0.144,0.288c-0.072,0.072-0.145,0.145-0.288,0.145c-0.072,0.072-0.216,0.072-0.36,0.072c-0.072,0-0.072,0-0.144,0c-0.072,0-0.145,0-0.145-0.072c-0.072,0-0.144,0-0.144,0c-0.072,0-0.145-0.072-0.145-0.072v-0.288c0.072,0,0.072,0.072,0.145,0.072c0,0,0.071,0.072,0.144,0.072s0.072,0,0.145,0c0.071,0,0.144,0,0.144,0c0.145,0,0.216,0,0.288,0s0.072-0.072,0.144-0.072c0.072-0.072,0.072-0.145,0.072-0.216c0.072-0.072,0.072-0.145,0.072-0.216c0-0.145-0.072-0.288-0.145-0.36c-0.071-0.072-0.216-0.145-0.432-0.145h-0.072c-0.071,0-0.071,0.072-0.144,0.072H73.08c-0.072,0-0.072,0-0.072,0L72.864,64.8l0.072-1.151h1.151v0.288h-0.863l-0.072,0.647c0,0,0.072,0,0.144,0C73.296,64.584,73.368,64.584,73.44,64.584z" />
        <path d="M72.216,72c0,0.216,0,0.433-0.071,0.576c0,0.144-0.072,0.288-0.216,0.36c-0.072,0.144-0.217,0.216-0.36,0.216c-0.145,0.072-0.288,0.072-0.504,0.072h-0.576v-2.376h0.648c0.144,0,0.359,0,0.432,0.071c0.144,0.072,0.288,0.145,0.36,0.216c0.144,0.072,0.216,0.217,0.216,0.36C72.216,71.64,72.216,71.856,72.216,72z M71.928,72c0-0.144,0-0.288-0.072-0.359c0-0.145-0.072-0.217-0.145-0.288c-0.071-0.072-0.144-0.145-0.288-0.217c-0.071,0-0.216-0.071-0.287-0.071h-0.36v1.943h0.288c0.288,0,0.504-0.071,0.647-0.288C71.856,72.576,71.928,72.36,71.928,72z M74.232,72.719h-0.36v0.505h-0.288v-0.505h-1.08v-0.287l1.08-1.584h0.288v1.584h0.36V72.719z M73.584,72.432v-0.576c0-0.072,0-0.145,0-0.216c0-0.072,0-0.145,0-0.217c0,0,0.072-0.071,0.072-0.144s0-0.145,0-0.145h-0.072v0.072v0.072c-0.071,0-0.071,0.072-0.071,0.072c0,0.071,0,0.071-0.072,0.071l-0.648,1.009H73.584z" />
        <path d="M72.36,79.2c0,0.216,0,0.432-0.072,0.576c-0.072,0.144-0.144,0.288-0.216,0.359c-0.072,0.145-0.216,0.217-0.36,0.217c-0.144,0.071-0.288,0.071-0.504,0.071h-0.576v-2.376h0.648c0.144,0,0.288,0,0.432,0.072c0.145,0.072,0.288,0.145,0.36,0.216c0.072,0.072,0.144,0.216,0.216,0.36C72.36,78.84,72.36,79.056,72.36,79.2z M72.072,79.2c0-0.144,0-0.288-0.072-0.36c0-0.144-0.071-0.216-0.144-0.288c-0.072-0.071-0.145-0.144-0.288-0.216c-0.072,0-0.216-0.071-0.36-0.071H70.92v1.943h0.288c0.288,0,0.504-0.072,0.648-0.288C72,79.776,72.072,79.56,72.072,79.2z M74.16,78.624c0,0.072,0,0.145,0,0.216c-0.072,0.072-0.072,0.072-0.144,0.145c0,0.072-0.072,0.072-0.145,0.144c-0.072,0-0.144,0.072-0.216,0.072l0,0c0.216,0,0.36,0.072,0.432,0.144c0.145,0.145,0.145,0.288,0.145,0.433c0,0.072,0,0.216,0,0.288c-0.072,0.071-0.145,0.144-0.216,0.216c-0.072,0.072-0.145,0.144-0.288,0.144c-0.072,0.072-0.216,0.072-0.36,0.072c-0.144,0-0.216,0-0.36,0c-0.071-0.072-0.216-0.072-0.287-0.144v-0.288c0.071,0.071,0.216,0.071,0.287,0.144c0.145,0,0.217,0,0.36,0c0.072,0,0.145,0,0.288,0c0.072,0,0.072-0.072,0.144-0.072c0.072-0.071,0.072-0.144,0.145-0.144c0-0.072,0-0.144,0-0.216s0-0.145-0.072-0.216c0-0.072-0.072-0.072-0.072-0.145c-0.071,0-0.144-0.072-0.216-0.072c-0.071,0-0.144,0-0.288,0H73.08v-0.287h0.216c0.072,0,0.217,0,0.288,0c0.072,0,0.072-0.072,0.145-0.072C73.8,78.912,73.8,78.84,73.8,78.84c0.072-0.071,0.072-0.144,0.072-0.216s0-0.144,0-0.144c-0.072-0.072-0.072-0.072-0.144-0.145c0,0-0.072,0-0.072-0.071c-0.072,0-0.144,0-0.216,0s-0.216,0-0.288,0.071c-0.072,0-0.216,0.072-0.288,0.145l-0.144-0.216c0.071-0.072,0.071-0.072,0.144-0.145c0.072,0,0.144,0,0.144-0.072c0.072,0,0.145,0,0.217,0c0.071-0.071,0.144-0.071,0.216-0.071c0.144,0,0.216,0.071,0.359,0.071c0.072,0,0.145,0.072,0.217,0.145c0.071,0,0.071,0.072,0.144,0.144C74.16,78.408,74.16,78.552,74.16,78.624z" />
        <path d="M72.36,86.4c0,0.216,0,0.432-0.072,0.576c-0.072,0.144-0.144,0.288-0.216,0.359c-0.072,0.145-0.216,0.216-0.36,0.216c-0.144,0.072-0.359,0.072-0.504,0.072h-0.576v-2.376h0.648c0.144,0,0.288,0,0.432,0.072c0.145,0.072,0.288,0.144,0.36,0.216s0.144,0.216,0.216,0.36C72.36,86.04,72.36,86.256,72.36,86.4z M72.072,86.4c0-0.145-0.072-0.288-0.072-0.36c-0.071-0.144-0.071-0.216-0.144-0.288c-0.072-0.071-0.145-0.144-0.288-0.216c-0.072,0-0.216-0.072-0.36-0.072H70.92v1.944h0.288c0.288,0,0.504-0.072,0.648-0.288C72,86.976,72.072,86.76,72.072,86.4z M74.232,87.624H72.72v-0.216l0.575-0.648c0.145-0.071,0.217-0.144,0.217-0.216c0.071-0.071,0.144-0.144,0.216-0.216c0-0.072,0.071-0.144,0.071-0.216c0.072-0.072,0.072-0.145,0.072-0.216c0-0.072,0-0.145-0.072-0.216c0-0.072,0-0.072-0.071-0.145c0,0-0.072,0-0.145-0.072c0,0-0.071,0-0.144,0s-0.145,0-0.288,0.072c-0.072,0-0.145,0.072-0.216,0.145l-0.145-0.217c0,0,0.072-0.071,0.145-0.071c0-0.072,0.071-0.072,0.144-0.072c0.072-0.072,0.145-0.072,0.145-0.072c0.071-0.072,0.144-0.072,0.216-0.072c0.144,0,0.216,0.072,0.288,0.072c0.144,0,0.216,0.072,0.216,0.145c0.072,0.071,0.144,0.071,0.144,0.216c0.072,0.072,0.072,0.144,0.072,0.216c0,0.144,0,0.216-0.072,0.288c0,0.072-0.071,0.144-0.071,0.288c-0.072,0.072-0.145,0.144-0.217,0.216c-0.071,0.072-0.144,0.144-0.216,0.288l-0.504,0.432v0.072h1.152V87.624z" />
        <path d="M48.024,111.096h0.792v1.224c0,0-0.072,0-0.145,0c-0.071,0.072-0.144,0.072-0.216,0.072s-0.144,0-0.216,0s-0.144,0-0.216,0c-0.145,0-0.288,0-0.433-0.072c-0.144-0.072-0.287-0.145-0.359-0.216c-0.072-0.145-0.145-0.216-0.216-0.433c-0.072-0.144-0.072-0.288-0.072-0.504c0-0.144,0.072-0.359,0.072-0.504c0.071-0.144,0.144-0.288,0.216-0.359c0.144-0.145,0.288-0.217,0.432-0.288c0.145-0.072,0.288-0.072,0.504-0.072c0.072,0,0.216,0,0.288,0c0.145,0.072,0.216,0.072,0.36,0.144l-0.145,0.288c0-0.071-0.071-0.071-0.144-0.071c0,0-0.072-0.072-0.145-0.072c0,0-0.071,0-0.144,0c0,0-0.072,0-0.144,0c-0.145,0-0.217,0-0.36,0.072c-0.072,0-0.145,0.071-0.216,0.144c-0.072,0.072-0.145,0.216-0.216,0.36c0,0.071,0,0.216,0,0.359c0,0.145,0,0.288,0,0.433c0.071,0.071,0.071,0.216,0.144,0.288c0.072,0.071,0.144,0.144,0.288,0.216c0.072,0,0.216,0.071,0.36,0.071c0.071,0,0.071,0,0.144,0s0.072,0,0.144-0.071c0,0,0,0,0.072,0h0.072v-0.721h-0.504V111.096z M51.192,112.392h-0.36l-1.151-2.017l0,0c0,0.072,0,0.216,0,0.288s0,0.145,0.071,0.216c0,0.072,0,0.145,0,0.217v1.296h-0.359v-2.448h0.432l1.08,2.016h0.072c-0.072-0.071-0.072-0.144-0.072-0.216s0-0.072,0-0.144v-0.072c0-0.072,0-0.072,0-0.145v-0.071v-1.368h0.288V112.392z M53.64,111.168c0,0.216,0,0.36-0.072,0.504c-0.072,0.145-0.145,0.288-0.216,0.433c-0.072,0.071-0.216,0.144-0.36,0.216c-0.144,0.072-0.288,0.072-0.504,0.072h-0.576v-2.448h0.648c0.144,0,0.288,0.072,0.432,0.072c0.145,0.071,0.288,0.144,0.36,0.288c0.071,0.071,0.216,0.216,0.216,0.359C53.64,110.808,53.64,110.952,53.64,111.168z M53.352,111.168c0-0.144,0-0.288-0.072-0.432c0-0.072-0.072-0.216-0.144-0.288c-0.072-0.072-0.145-0.144-0.288-0.144c-0.072-0.072-0.217-0.072-0.36-0.072H52.2v1.872h0.288c0.288,0,0.504-0.072,0.648-0.216C53.28,111.744,53.352,111.456,53.352,111.168z" />
        <path d="M55.152,9.792h0.36L54.72,12.24h-0.36l-0.792-2.448h0.288l0.504,1.584c0.072,0.072,0.072,0.216,0.072,0.288c0.071,0.072,0.071,0.216,0.071,0.288c0.072-0.072,0.072-0.216,0.072-0.288c0.072-0.072,0.072-0.216,0.145-0.288L55.152,9.792z M55.872,9.792h0.648c0.144,0,0.288,0,0.432,0c0.072,0.072,0.216,0.072,0.288,0.145c0.072,0,0.072,0.071,0.144,0.144c0,0.145,0.072,0.216,0.072,0.36c0,0.072,0,0.144-0.072,0.144c0,0.072-0.071,0.145-0.071,0.216c-0.072,0-0.072,0.072-0.145,0.072c-0.071,0.072-0.144,0.072-0.216,0.072l0,0c0.072,0.072,0.145,0.072,0.216,0.072c0.072,0.071,0.145,0.071,0.145,0.144c0.071,0,0.144,0.072,0.144,0.145c0,0.071,0.072,0.144,0.072,0.216c0,0.144-0.072,0.216-0.072,0.359c-0.072,0.072-0.072,0.145-0.144,0.217c-0.072,0.071-0.216,0.071-0.288,0.144c-0.072,0-0.216,0-0.36,0h-0.792V9.792z M56.16,10.872h0.432c0.072,0,0.217-0.072,0.217-0.072c0.071,0,0.144,0,0.216-0.071c0,0,0.072-0.072,0.072-0.145c0,0,0-0.071,0-0.144c0-0.145,0-0.216-0.145-0.288c-0.072-0.072-0.216-0.072-0.36-0.072H56.16V10.872z M56.16,11.088v0.937h0.504c0.072,0,0.145,0,0.216-0.072c0.072,0,0.145-0.072,0.145-0.072c0.072-0.071,0.072-0.071,0.144-0.144c0-0.072,0-0.145,0-0.216c0-0.072,0-0.072,0-0.145c-0.071-0.071-0.071-0.144-0.144-0.144c0-0.072-0.072-0.072-0.145-0.072c-0.071-0.072-0.144-0.072-0.288-0.072H56.16z M59.472,12.24l-0.217-0.72H58.32l-0.288,0.72h-0.36l0.937-2.448h0.288l0.936,2.448H59.472z M59.112,11.232l-0.216-0.72c0-0.072-0.072-0.072-0.072-0.072c0-0.072,0-0.072,0-0.145c0,0,0-0.071-0.072-0.071c0-0.072,0-0.072,0-0.145c0,0.072,0,0.072,0,0.145l-0.071,0.071c0,0.072,0,0.072,0,0.145c0,0,0,0,0,0.072l-0.288,0.72H59.112z M60.696,12.24h-0.36v-2.16h-0.72V9.792h1.8v0.288h-0.72V12.24z" />
        <path d="M12.888,49.104h0.359l0.36,1.512c0,0.072,0.072,0.072,0.072,0.144c0,0.072,0,0.145,0,0.217c0.071,0.071,0.071,0.144,0.071,0.144c0,0.072,0,0.145,0,0.145s0-0.072,0.072-0.145c0,0,0-0.072,0-0.144c0-0.072,0-0.072,0-0.145s0.072-0.144,0.072-0.216l0.359-1.512h0.288l-0.576,2.52h-0.359l-0.433-1.584c0-0.072,0-0.144-0.071-0.216c0-0.072,0-0.072,0-0.144c0-0.072-0.072-0.145-0.072-0.217c0,0.072,0,0.145,0,0.217c0,0.071-0.072,0.071-0.072,0.144s0,0.144,0,0.216l-0.432,1.584h-0.36l-0.647-2.52h0.359l0.36,1.512c0,0.072,0.072,0.144,0.072,0.216s0,0.072,0,0.145c0,0.071,0,0.144,0.071,0.144c0,0.072,0,0.145,0,0.145s0-0.072,0-0.145c0,0,0-0.072,0.072-0.144c0-0.072,0-0.145,0-0.217c0-0.071,0-0.071,0.072-0.144L12.888,49.104z M16.632,51.624h-0.359l-0.792-1.151l-0.216,0.144v1.008h-0.36v-2.52h0.36V50.4l0.216-0.288l0.72-1.008h0.36l-0.864,1.151L16.632,51.624z M18.432,49.896c0,0.071,0,0.144,0,0.288c-0.072,0.071-0.072,0.144-0.145,0.216S18.072,50.544,18,50.616c-0.144,0-0.288,0.072-0.432,0.072H17.28v0.936h-0.288v-2.52h0.576c0.144,0,0.288,0.071,0.432,0.071c0.072,0.072,0.145,0.072,0.216,0.145c0.072,0.072,0.145,0.144,0.217,0.216C18.432,49.608,18.432,49.752,18.432,49.896z M17.28,50.4h0.216c0.145,0,0.216,0,0.288-0.072c0.072,0,0.145,0,0.216-0.072c0,0,0.072-0.071,0.072-0.144c0.072-0.072,0.072-0.145,0.072-0.216c0-0.145-0.072-0.288-0.145-0.36c-0.071-0.072-0.216-0.144-0.432-0.144H17.28V50.4z" />
        <path d="M13.68,66.024l-0.288-0.792h-0.937l-0.288,0.792h-0.359l0.936-2.521h0.288l0.936,2.521H13.68z M13.248,64.944l-0.216-0.72c0,0,0,0,0-0.072c-0.072,0-0.072,0-0.072-0.072v-0.072c0-0.071-0.071-0.071-0.071-0.144c0,0.072,0,0.072,0,0.144c0,0,0,0.072-0.072,0.072c0,0.072,0,0.072,0,0.072c0,0.072,0,0.072,0,0.072l-0.288,0.72H13.248z M14.904,64.512c0.144,0,0.216,0,0.288,0.071c0.144,0,0.216,0.072,0.288,0.072c0.071,0.072,0.144,0.144,0.144,0.288c0.072,0.072,0.072,0.144,0.072,0.288c0,0.144,0,0.216-0.072,0.359c0,0.072-0.072,0.217-0.144,0.288c-0.072,0.072-0.145,0.072-0.288,0.145c-0.145,0-0.216,0.072-0.36,0.072c-0.072,0-0.144,0-0.216,0c-0.072-0.072-0.072-0.072-0.144-0.072c-0.072,0-0.072,0-0.145,0c-0.072-0.072-0.072-0.072-0.144-0.072v-0.288c0.071,0,0.071,0,0.144,0.072c0.072,0,0.072,0,0.145,0c0.071,0.072,0.144,0.072,0.216,0.072c0,0,0.071,0,0.144,0s0.145,0,0.216,0c0.072-0.072,0.145-0.072,0.217-0.145c0,0,0.071-0.072,0.071-0.144c0.072-0.072,0.072-0.145,0.072-0.216c0-0.217-0.072-0.288-0.144-0.433C15.12,64.8,14.976,64.8,14.832,64.8c-0.072,0-0.072,0-0.144,0h-0.072c-0.072,0-0.072,0-0.144,0H14.4l-0.145-0.071l0.072-1.225h1.224v0.288h-0.936l-0.072,0.721c0.072,0,0.072,0,0.145,0C14.76,64.512,14.832,64.512,14.904,64.512z" />
        <path d="M13.68,57.528c0,0.216,0,0.36-0.072,0.504s-0.145,0.288-0.216,0.432c-0.145,0.072-0.288,0.145-0.433,0.217c-0.144,0.071-0.288,0.071-0.504,0.071h-0.647v-2.447h0.72c0.216,0,0.36,0,0.504,0.071c0.144,0,0.216,0.072,0.36,0.216c0.071,0.072,0.144,0.217,0.216,0.36C13.68,57.096,13.68,57.312,13.68,57.528z M13.32,57.528c0-0.216,0-0.36,0-0.432c-0.072-0.145-0.145-0.217-0.216-0.288c-0.072-0.145-0.145-0.145-0.216-0.217c-0.145,0-0.217-0.071-0.36-0.071h-0.36v2.016h0.288c0.288,0,0.504-0.144,0.648-0.288C13.248,58.104,13.32,57.816,13.32,57.528z M15.696,58.752l-0.288-0.792h-0.936l-0.288,0.792h-0.288l0.863-2.52h0.288l0.937,2.52H15.696z M15.264,57.744l-0.217-0.72c0-0.072,0-0.072,0-0.145c-0.071,0-0.071,0-0.071-0.071v-0.072c0-0.072-0.072-0.072-0.072-0.145c0,0.072,0,0.072,0,0.145v0.072c-0.072,0.071-0.072,0.071-0.072,0.144c0,0,0,0,0,0.072l-0.288,0.72H15.264z M17.28,56.52c-0.072,0-0.216,0-0.288,0.071c-0.144,0.072-0.216,0.145-0.288,0.217c-0.072,0.071-0.072,0.144-0.144,0.288c0,0.144-0.072,0.287-0.072,0.432c0,0.144,0.072,0.288,0.072,0.432c0,0.145,0.071,0.216,0.144,0.288s0.145,0.145,0.288,0.216c0.072,0.072,0.216,0.072,0.288,0.072c0.144,0,0.216,0,0.288-0.072c0.144,0,0.216,0,0.288,0v0.217c0,0.071-0.072,0.071-0.145,0.071c0,0-0.071,0-0.144,0c0,0.072-0.072,0.072-0.145,0.072c0,0-0.071,0-0.144,0c-0.216,0-0.36-0.072-0.504-0.144c-0.145,0-0.216-0.145-0.36-0.217c-0.071-0.144-0.144-0.288-0.144-0.432C16.2,57.888,16.2,57.744,16.2,57.528s0-0.36,0.072-0.504c0-0.216,0.072-0.288,0.216-0.433c0.072-0.144,0.216-0.216,0.36-0.287c0.144,0,0.288-0.072,0.432-0.072s0.288,0,0.36,0.072c0.144,0,0.216,0,0.359,0.071l-0.144,0.288c-0.072-0.072-0.145-0.072-0.288-0.072C17.496,56.52,17.424,56.52,17.28,56.52z" />
        <path d="M13.68,73.224l-0.288-0.792h-0.937l-0.288,0.792h-0.359l0.936-2.521h0.288l0.936,2.521H13.68z M13.248,72.144l-0.216-0.721c0,0,0,0,0-0.071c-0.072,0-0.072,0-0.072-0.072v-0.072c0-0.072-0.071-0.072-0.071-0.144c0,0.071,0,0.071,0,0.144c0,0,0,0.072-0.072,0.072c0,0.072,0,0.072,0,0.072c0,0.071,0,0.071,0,0.071l-0.288,0.721H13.248z M15.84,72.648H15.48v0.576h-0.288v-0.576H14.04v-0.216l1.08-1.729h0.36v1.656h0.359V72.648z M15.192,72.36v-0.576c0-0.072,0-0.144,0-0.216s0-0.145,0-0.216c0-0.072,0-0.072,0-0.145s0-0.144,0-0.144l0,0c0,0-0.072,0-0.072,0.071v0.072l-0.072,0.072v0.072l-0.72,1.008H15.192z" />
        <path d="M13.68,80.424l-0.288-0.792h-0.937l-0.288,0.792h-0.359l0.936-2.52h0.288l0.936,2.52H13.68z M13.248,79.344l-0.216-0.72c0,0,0,0,0-0.072c-0.072,0-0.072,0-0.072-0.071v-0.072c0-0.072-0.071-0.072-0.071-0.144c0,0.071,0,0.071,0,0.144c0,0,0,0.072-0.072,0.072c0,0.071,0,0.071,0,0.071c0,0.072,0,0.072,0,0.072l-0.288,0.72H13.248z M15.624,78.552c0,0.072,0,0.145-0.072,0.217c0,0.071-0.071,0.144-0.071,0.144c-0.072,0.072-0.145,0.145-0.216,0.145c0,0-0.145,0.071-0.217,0.071l0,0c0.217,0,0.36,0.072,0.504,0.216c0.072,0.072,0.145,0.217,0.145,0.36c0,0.145,0,0.216-0.072,0.288c0,0.144-0.072,0.216-0.144,0.288c-0.072,0.072-0.216,0.072-0.288,0.144c-0.145,0-0.288,0.072-0.433,0.072c-0.144,0-0.216,0-0.359-0.072c-0.072,0-0.216-0.071-0.288-0.071v-0.288c0.072,0,0.216,0.071,0.288,0.071c0.144,0.072,0.288,0.072,0.359,0.072c0.145,0,0.217,0,0.288,0c0.072-0.072,0.145-0.072,0.217-0.144c0,0,0.071-0.072,0.071-0.145c0-0.071,0.072-0.144,0.072-0.216s-0.072-0.144-0.072-0.216c-0.071,0-0.071-0.072-0.144-0.072c-0.072-0.072-0.145-0.072-0.216-0.144c-0.072,0-0.145,0-0.288,0h-0.216v-0.288h0.216c0.144,0,0.216,0,0.288,0c0.071,0,0.144-0.072,0.144-0.072c0.072-0.072,0.145-0.144,0.145-0.144c0-0.072,0-0.145,0-0.217c0-0.071,0-0.144,0-0.144c0-0.072-0.072-0.144-0.072-0.144c-0.072,0-0.072-0.072-0.145-0.072c-0.071,0-0.144,0-0.144,0c-0.145,0-0.288,0-0.36,0c-0.071,0.072-0.144,0.144-0.288,0.216l-0.144-0.216c0.072-0.072,0.072-0.072,0.144-0.145c0.072,0,0.145-0.071,0.217-0.071c0,0,0.071-0.072,0.144-0.072s0.144,0,0.216,0c0.145,0,0.288,0,0.36,0.072c0.072,0,0.144,0.071,0.216,0.071c0.072,0.072,0.144,0.145,0.144,0.217C15.624,78.336,15.624,78.408,15.624,78.552z" />
        <path d="M13.68,87.624l-0.288-0.792h-0.937l-0.288,0.792h-0.359l0.936-2.52h0.288l0.936,2.52H13.68z M13.248,86.544l-0.216-0.72c0,0,0,0,0-0.072c-0.072,0-0.072,0-0.072-0.071v-0.072c0-0.072-0.071-0.072-0.071-0.145c0,0.072,0,0.072,0,0.145c0,0,0,0.072-0.072,0.072c0,0.071,0,0.071,0,0.071c0,0.072,0,0.072,0,0.072l-0.288,0.72H13.248z M15.696,87.624h-1.584v-0.288l0.647-0.647c0.072-0.072,0.145-0.145,0.217-0.216c0.071-0.072,0.144-0.145,0.144-0.217c0.072-0.071,0.072-0.144,0.145-0.216c0-0.072,0-0.144,0-0.288c0-0.071,0-0.071,0-0.144s-0.072-0.072-0.072-0.145c-0.072,0-0.072-0.071-0.145-0.071c-0.071,0-0.144,0-0.144,0c-0.145,0-0.216,0-0.288,0.071c-0.144,0-0.216,0.072-0.288,0.145l-0.144-0.216c0-0.072,0.071-0.072,0.144-0.145c0,0,0.072,0,0.145-0.072c0.071,0,0.144,0,0.216-0.071c0.071,0,0.144,0,0.216,0s0.216,0,0.288,0.071c0.072,0,0.144,0.072,0.216,0.072c0.072,0.072,0.072,0.145,0.144,0.216c0,0.145,0.072,0.217,0.072,0.288c0,0.145-0.072,0.216-0.072,0.288s-0.071,0.216-0.144,0.288c0,0.072-0.072,0.145-0.144,0.216c-0.072,0.072-0.217,0.216-0.288,0.288l-0.433,0.504l0,0h1.152V87.624z" />
        <path d="M13.68,94.824l-0.288-0.792h-0.937l-0.288,0.792h-0.359l0.936-2.52h0.288l0.936,2.52H13.68z M13.248,93.744l-0.216-0.72c0,0,0,0,0-0.072c-0.072,0-0.072,0-0.072-0.072v-0.071c0-0.072-0.071-0.072-0.071-0.145c0,0.072,0,0.072,0,0.145c0,0,0,0.071-0.072,0.071c0,0.072,0,0.072,0,0.072c0,0.072,0,0.072,0,0.072l-0.288,0.72H13.248z M15.192,94.824h-0.288V93.24c0,0,0-0.072,0-0.144c0,0,0-0.072,0-0.145s0-0.144,0-0.144c0-0.072,0-0.145,0-0.145s-0.072,0-0.072,0.072l0,0c-0.072,0-0.072,0.072-0.072,0.072s-0.071,0-0.071,0.071l-0.216,0.145l-0.217-0.145l0.648-0.575h0.288V94.824z" />
        <path d="M13.68,102.024l-0.288-0.792h-0.937l-0.288,0.792h-0.359l0.936-2.521h0.288l0.936,2.521H13.68z M13.248,100.944l-0.216-0.72c0,0,0,0,0-0.072c-0.072,0-0.072,0-0.072-0.072v-0.072c0-0.071-0.071-0.071-0.071-0.144c0,0.072,0,0.072,0,0.144c0,0,0,0.072-0.072,0.072c0,0.072,0,0.072,0,0.072c0,0.072,0,0.072,0,0.072l-0.288,0.72H13.248z M15.768,100.8c0,0.217-0.072,0.36-0.072,0.505c0,0.216-0.072,0.287-0.145,0.432c-0.071,0.072-0.144,0.216-0.216,0.216c-0.144,0.072-0.288,0.145-0.432,0.145c-0.072,0-0.216-0.072-0.288-0.145c-0.144,0-0.216-0.144-0.288-0.216c-0.072-0.145-0.072-0.216-0.144-0.432c0-0.145-0.072-0.288-0.072-0.505c0-0.216,0.072-0.432,0.072-0.575c0-0.145,0.071-0.288,0.144-0.36c0.072-0.144,0.145-0.216,0.216-0.288c0.145-0.072,0.216-0.072,0.36-0.072c0.144,0,0.288,0,0.36,0.072c0.144,0.072,0.216,0.145,0.287,0.288c0.072,0.072,0.072,0.216,0.145,0.36C15.696,100.368,15.768,100.584,15.768,100.8z M14.472,100.8c0,0.145,0,0.288,0,0.433c0,0.144,0.071,0.216,0.071,0.288c0.072,0.144,0.072,0.216,0.145,0.216c0.071,0.072,0.144,0.072,0.216,0.072c0.144,0,0.216,0,0.288-0.072c0,0,0.072-0.072,0.144-0.216c0-0.072,0.072-0.145,0.072-0.288c0-0.145,0-0.288,0-0.433c0-0.216,0-0.359,0-0.432c0-0.144-0.072-0.288-0.072-0.36c-0.071-0.071-0.144-0.144-0.144-0.216c-0.072,0-0.145,0-0.288,0c-0.072,0-0.145,0-0.216,0c-0.072,0.072-0.072,0.145-0.145,0.216c0,0.072-0.071,0.217-0.071,0.36C14.472,100.44,14.472,100.584,14.472,100.8z" />
        <path d="M72.216,100.8c0,0.217,0,0.36-0.071,0.505c-0.072,0.216-0.145,0.287-0.216,0.432c-0.145,0.072-0.217,0.216-0.36,0.216c-0.216,0.072-0.36,0.072-0.576,0.072h-0.576v-2.448h0.648c0.216,0,0.359,0,0.504,0.072c0.144,0,0.288,0.144,0.36,0.216c0.071,0.072,0.144,0.216,0.216,0.36C72.216,100.368,72.216,100.584,72.216,100.8z M71.928,100.8c0-0.144-0.072-0.287-0.072-0.432c-0.072-0.144-0.072-0.216-0.145-0.288c-0.071-0.072-0.216-0.144-0.288-0.216c-0.144,0-0.216-0.072-0.359-0.072h-0.36v2.017h0.288c0.288,0,0.504-0.145,0.648-0.288C71.856,101.376,71.928,101.088,71.928,100.8z M74.232,100.8c0,0.217,0,0.36-0.072,0.576c0,0.145-0.072,0.288-0.144,0.36c-0.072,0.144-0.145,0.216-0.217,0.288c-0.144,0-0.216,0.072-0.359,0.072c-0.145,0-0.288-0.072-0.36-0.072c-0.144-0.072-0.216-0.145-0.288-0.288c-0.071-0.072-0.071-0.216-0.144-0.36c0-0.216,0-0.359,0-0.576c0-0.216,0-0.359,0-0.575c0.072-0.145,0.072-0.288,0.144-0.36c0.072-0.144,0.145-0.216,0.288-0.288c0.072,0,0.216-0.072,0.36-0.072c0.072,0,0.216,0.072,0.359,0.072c0.072,0.072,0.145,0.145,0.217,0.288c0.071,0.072,0.144,0.216,0.144,0.36C74.232,100.44,74.232,100.584,74.232,100.8z M72.936,100.8c0,0.145,0,0.288,0,0.433c0.071,0.144,0.071,0.216,0.071,0.359c0.072,0.072,0.145,0.145,0.145,0.145c0.072,0.072,0.144,0.072,0.288,0.072c0.072,0,0.144,0,0.216-0.072c0.072,0,0.072-0.072,0.144-0.145c0-0.071,0.072-0.216,0.072-0.359c0-0.145,0-0.288,0-0.433c0-0.144,0-0.287,0-0.432c0-0.144-0.072-0.216-0.072-0.36c-0.071-0.071-0.071-0.144-0.144-0.144c-0.072-0.072-0.144-0.072-0.216-0.072c-0.145,0-0.216,0-0.288,0.072c0,0-0.072,0.072-0.145,0.144c0,0.145,0,0.217-0.071,0.36C72.936,100.512,72.936,100.656,72.936,100.8z" />
        <path d="M72.432,93.6c0,0.216,0,0.359-0.072,0.575c-0.072,0.145-0.145,0.288-0.216,0.36c-0.072,0.145-0.216,0.216-0.36,0.216c-0.144,0.072-0.36,0.145-0.504,0.145h-0.648v-2.521h0.648c0.216,0,0.36,0,0.504,0.072c0.145,0.072,0.288,0.144,0.36,0.216c0.071,0.145,0.216,0.216,0.216,0.36C72.432,93.24,72.432,93.384,72.432,93.6z M72.144,93.6c0-0.145-0.072-0.288-0.072-0.433C72,93.024,72,92.952,71.928,92.88c-0.072-0.071-0.217-0.144-0.288-0.216c-0.072,0-0.217,0-0.36,0h-0.36v1.944h0.288c0.288,0,0.504-0.072,0.721-0.288C72.072,94.176,72.144,93.96,72.144,93.6z M73.872,94.896h-0.288v-1.584c0-0.072,0-0.145,0-0.145c0-0.071,0-0.144,0-0.216c0,0,0-0.072,0-0.144c0-0.072,0-0.072,0-0.145c0,0.072,0,0.072,0,0.072c-0.071,0-0.071,0-0.071,0.072H73.44c0,0,0,0.071-0.072,0.071l-0.216,0.217l-0.145-0.217l0.648-0.504h0.216V94.896z" />
        <g >
            <path d="M28.368,7.2h0.864v0.072l0,0H29.16v0.071l0,0l0,0l0,0v0.072l0,0l0,0l0,0v0.072h-0.072l0,0l0,0l0,0V7.56h-0.071l0,0l0,0l0,0l0,0h-0.072v0.071l0,0l0,0h-0.072l0,0l0,0H28.8l0,0l0,0l0,0h-0.071l0,0l0,0h-0.072l0,0l0,0l0,0L28.584,7.56l0,0l0,0l0,0l0,0h-0.071l0,0V7.488l0,0l0,0H28.44l0,0V7.416l0,0l0,0l0,0V7.344l0,0h-0.072l0,0V7.272l0,0l0,0V7.2z M29.232,0v7.2h-0.864V0H29.232z M29.232,0h-0.864l0,0l0,0l0,0v-0.072l0,0h0.072v-0.071l0,0l0,0l0,0v-0.072l0,0l0,0h0.072l0,0v-0.072l0,0l0,0h0.071l0,0l0,0V-0.36l0,0h0.072l0,0l0,0l0,0h0.072l0,0l0,0H28.8l0,0l0,0l0,0h0.072l0,0l0,0h0.072l0,0l0,0l0,0h0.072v0.071l0,0l0,0l0,0h0.071l0,0v0.072l0,0l0,0h0.072l0,0v0.072l0,0l0,0l0,0v0.071l0,0l0,0V0H29.232L29.232,0L29.232,0z" gorn="0.1.25.0"  id="connector52pin"/>
            <rect x="28.8" y="-0.368" height="0.017" width="0.001" gorn="0.1.25.1"  id="connector52terminal" fill="none"/>
        </g>
        <g >
            <path d="M0,35.64v0.792l0,0h-0.071l0,0l0,0l0,0h-0.072l0,0l0,0V36.36h-0.072l0,0l0,0l0,0h-0.072l0,0v-0.072l0,0l0,0H-0.36l0,0v-0.072l0,0l0,0l0,0v-0.071l0,0l0,0h-0.072v-0.072l0,0l0,0V36l0,0l0,0l0,0v-0.072h0.072l0,0v-0.071l0,0l0,0l0,0v-0.072l0,0l0,0h0.071l0,0v-0.072l0,0l0,0h0.072l0,0l0,0V35.64h0.072l0,0l0,0l0,0h0.072l0,0l0,0l0,0H0L0,35.64z M7.2,36.432H0V35.64h7.2V36.432z M7.2,36.432V35.64l0,0h0.072l0,0l0,0l0,0h0.072l0,0l0,0l0,0h0.071v0.071l0,0l0,0h0.072l0,0l0,0v0.072l0,0H7.56l0,0l0,0v0.072l0,0l0,0l0,0v0.071l0,0h0.071V36l0,0l0,0l0,0v0.072l0,0l0,0v0.072H7.56l0,0l0,0v0.071l0,0l0,0l0,0v0.072l0,0H7.488l0,0l0,0v0.072l0,0H7.416l0,0l0,0l0,0H7.344v0.072l0,0l0,0H7.272l0,0l0,0l0,0H7.2L7.2,36.432z" gorn="0.1.26.0"  id="connector50pin"/>
            <rect x="-0.44" y="36.035" height="0.002" width="0.016" gorn="0.1.26.1"  id="connector50terminal" fill="none"/>
        </g>
        <g >
            <path d="M0,42.84v0.792l0,0h-0.071l0,0l0,0l0,0h-0.072l0,0l0,0V43.56h-0.072l0,0l0,0l0,0h-0.072l0,0v-0.072l0,0l0,0H-0.36l0,0v-0.072l0,0l0,0l0,0v-0.072l0,0l0,0h-0.072v-0.071l0,0l0,0V43.2l0,0l0,0l0,0v-0.072h0.072l0,0v-0.071l0,0l0,0l0,0v-0.072l0,0l0,0h0.071l0,0v-0.072l0,0l0,0h0.072l0,0l0,0V42.84h0.072l0,0l0,0l0,0h0.072l0,0l0,0l0,0H0L0,42.84z M7.2,43.632H0V42.84h7.2V43.632z M7.2,43.632V42.84l0,0h0.072l0,0l0,0l0,0h0.072l0,0l0,0l0,0h0.071v0.072l0,0l0,0h0.072l0,0l0,0v0.072l0,0H7.56l0,0l0,0v0.072l0,0l0,0l0,0v0.071l0,0h0.071V43.2l0,0l0,0l0,0v0.072l0,0l0,0v0.071H7.56l0,0l0,0v0.072l0,0l0,0l0,0v0.072l0,0H7.488l0,0l0,0v0.072l0,0H7.416l0,0l0,0l0,0H7.344v0.071l0,0l0,0H7.272l0,0l0,0l0,0H7.2L7.2,43.632z" gorn="0.1.27.0"  id="connector49pin"/>
            <rect x="-0.44" y="43.235" height="0.002" width="0.016" gorn="0.1.27.1"  id="connector49terminal" fill="none"/>
        </g>
        <g >
            <path d="M0,50.04v0.792l0,0h-0.071l0,0l0,0l0,0h-0.072l0,0l0,0V50.76h-0.072l0,0l0,0l0,0h-0.072l0,0v-0.071l0,0l0,0H-0.36l0,0v-0.072l0,0l0,0l0,0v-0.072l0,0l0,0h-0.072v-0.071l0,0l0,0V50.4l0,0l0,0l0,0v-0.072h0.072l0,0v-0.072l0,0l0,0l0,0v-0.071l0,0l0,0h0.071l0,0v-0.072l0,0l0,0h0.072l0,0l0,0V50.04h0.072l0,0l0,0l0,0h0.072l0,0l0,0l0,0H0L0,50.04z M7.2,50.832H0V50.04h7.2V50.832z M7.2,50.832V50.04l0,0h0.072l0,0l0,0l0,0h0.072l0,0l0,0l0,0h0.071v0.072l0,0l0,0h0.072l0,0l0,0v0.072l0,0H7.56l0,0l0,0v0.071l0,0l0,0l0,0v0.072l0,0h0.071V50.4l0,0l0,0l0,0v0.072l0,0l0,0v0.071H7.56l0,0l0,0v0.072l0,0l0,0l0,0v0.072l0,0H7.488l0,0l0,0v0.071l0,0H7.416l0,0l0,0l0,0H7.344v0.072l0,0l0,0H7.272l0,0l0,0l0,0H7.2L7.2,50.832z" gorn="0.1.28.0"  id="connector48pin"/>
            <rect x="-0.44" y="50.435" height="0.001" width="0.016" gorn="0.1.28.1"  id="connector48terminal" fill="none"/>
        </g>
        <g >
            <path d="M0,57.24v0.792l0,0h-0.071l0,0l0,0l0,0h-0.072l0,0l0,0V57.96h-0.072l0,0l0,0l0,0h-0.072l0,0v-0.071l0,0l0,0H-0.36l0,0v-0.072l0,0l0,0l0,0v-0.072l0,0l0,0h-0.072v-0.072l0,0l0,0V57.6l0,0l0,0l0,0v-0.072h0.072l0,0v-0.072l0,0l0,0l0,0v-0.072l0,0l0,0h0.071l0,0v-0.071l0,0l0,0h0.072l0,0l0,0V57.24h0.072l0,0l0,0l0,0h0.072l0,0l0,0l0,0H0L0,57.24z M7.2,58.032H0V57.24h7.2V58.032z M7.2,58.032V57.24l0,0h0.072l0,0l0,0l0,0h0.072l0,0l0,0l0,0h0.071v0.072l0,0l0,0h0.072l0,0l0,0v0.071l0,0H7.56l0,0l0,0v0.072l0,0l0,0l0,0v0.072l0,0h0.071V57.6l0,0l0,0l0,0v0.071l0,0l0,0v0.072H7.56l0,0l0,0v0.072l0,0l0,0l0,0v0.072l0,0H7.488l0,0l0,0v0.071l0,0H7.416l0,0l0,0l0,0H7.344v0.072l0,0l0,0H7.272l0,0l0,0l0,0H7.2L7.2,58.032z" gorn="0.1.29.0"  id="connector47pin"/>
            <rect x="-0.44" y="57.635" height="0.001" width="0.016" gorn="0.1.29.1"  id="connector47terminal" fill="none"/>
        </g>
        <g >
            <path d="M0,64.44v0.792l0,0h-0.071l0,0l0,0l0,0h-0.072l0,0l0,0V65.16h-0.072l0,0l0,0l0,0h-0.072l0,0v-0.072l0,0l0,0H-0.36l0,0v-0.071l0,0l0,0l0,0v-0.072l0,0l0,0h-0.072v-0.072l0,0l0,0V64.8l0,0l0,0l0,0v-0.071h0.072l0,0v-0.072l0,0l0,0l0,0v-0.072l0,0l0,0h0.071l0,0v-0.071l0,0l0,0h0.072l0,0l0,0V64.44h0.072l0,0l0,0l0,0h0.072l0,0l0,0l0,0H0L0,64.44z M7.2,65.232H0V64.44h7.2V65.232z M7.2,65.232V64.44l0,0h0.072l0,0l0,0l0,0h0.072l0,0l0,0l0,0h0.071v0.072l0,0l0,0h0.072l0,0l0,0v0.071l0,0H7.56l0,0l0,0v0.072l0,0l0,0l0,0v0.072l0,0h0.071V64.8l0,0l0,0l0,0v0.072l0,0l0,0v0.072H7.56l0,0l0,0v0.072l0,0l0,0l0,0v0.071l0,0H7.488l0,0l0,0v0.072l0,0H7.416l0,0l0,0l0,0H7.344v0.072l0,0l0,0H7.272l0,0l0,0l0,0H7.2L7.2,65.232z" gorn="0.1.30.0"  id="connector46pin"/>
            <rect x="-0.44" y="64.835" height="0.002" width="0.016" gorn="0.1.30.1"  id="connector46terminal" fill="none"/>
        </g>
        <g >
            <path d="M0,71.64v0.792l0,0h-0.071l0,0l0,0l0,0h-0.072l0,0l0,0V72.36h-0.072l0,0l0,0l0,0h-0.072l0,0v-0.072l0,0l0,0H-0.36l0,0v-0.072l0,0l0,0l0,0v-0.071l0,0l0,0h-0.072v-0.072l0,0l0,0V72l0,0l0,0l0,0v-0.072h0.072l0,0v-0.071l0,0l0,0l0,0v-0.072l0,0l0,0h0.071l0,0v-0.072l0,0l0,0h0.072l0,0l0,0V71.64h0.072l0,0l0,0l0,0h0.072l0,0l0,0l0,0H0L0,71.64z M7.2,72.432H0V71.64h7.2V72.432z M7.2,72.432V71.64l0,0h0.072l0,0l0,0l0,0h0.072l0,0l0,0l0,0h0.071v0.071l0,0l0,0h0.072l0,0l0,0v0.072l0,0H7.56l0,0l0,0v0.072l0,0l0,0l0,0v0.071l0,0h0.071V72l0,0l0,0l0,0v0.072l0,0l0,0v0.072H7.56l0,0l0,0v0.071l0,0l0,0l0,0v0.072l0,0H7.488l0,0l0,0v0.072l0,0H7.416l0,0l0,0l0,0H7.344v0.072l0,0l0,0H7.272l0,0l0,0l0,0H7.2L7.2,72.432z" gorn="0.1.31.0"  id="connector45pin"/>
            <rect x="-0.44" y="72.035" height="0.002" width="0.016" gorn="0.1.31.1"  id="connector45terminal" fill="none"/>
        </g>
        <g >
            <path d="M0,78.84v0.792l0,0h-0.071l0,0l0,0l0,0h-0.072l0,0l0,0V79.56h-0.072l0,0l0,0l0,0h-0.072l0,0v-0.072l0,0l0,0H-0.36l0,0v-0.072l0,0l0,0l0,0v-0.072l0,0l0,0h-0.072v-0.071l0,0l0,0V79.2l0,0l0,0l0,0v-0.072h0.072l0,0v-0.071l0,0l0,0l0,0v-0.072l0,0l0,0h0.071l0,0v-0.072l0,0l0,0h0.072l0,0l0,0V78.84h0.072l0,0l0,0l0,0h0.072l0,0l0,0l0,0H0L0,78.84z M7.2,79.632H0V78.84h7.2V79.632z M7.2,79.632V78.84l0,0h0.072l0,0l0,0l0,0h0.072l0,0l0,0l0,0h0.071v0.072l0,0l0,0h0.072l0,0l0,0v0.072l0,0H7.56l0,0l0,0v0.072l0,0l0,0l0,0v0.071l0,0h0.071V79.2l0,0l0,0l0,0v0.072l0,0l0,0v0.071H7.56l0,0l0,0v0.072l0,0l0,0l0,0v0.072l0,0H7.488l0,0l0,0v0.072l0,0H7.416l0,0l0,0l0,0H7.344v0.071l0,0l0,0H7.272l0,0l0,0l0,0H7.2L7.2,79.632z" gorn="0.1.32.0"  id="connector44pin"/>
            <rect x="-0.44" y="79.235" height="0.002" width="0.016" gorn="0.1.32.1"  id="connector44terminal" fill="none"/>
        </g>
        <g >
            <path d="M0,86.04v0.792l0,0h-0.071l0,0l0,0l0,0h-0.072l0,0l0,0V86.76h-0.072l0,0l0,0l0,0h-0.072l0,0v-0.071l0,0l0,0H-0.36l0,0v-0.072l0,0l0,0l0,0v-0.072l0,0l0,0h-0.072v-0.071l0,0l0,0V86.4l0,0l0,0l0,0v-0.072h0.072l0,0v-0.072l0,0l0,0l0,0v-0.071l0,0l0,0h0.071l0,0v-0.072l0,0l0,0h0.072l0,0l0,0V86.04h0.072l0,0l0,0l0,0h0.072l0,0l0,0l0,0H0L0,86.04z M7.2,86.832H0V86.04h7.2V86.832z M7.2,86.832V86.04l0,0h0.072l0,0l0,0l0,0h0.072l0,0l0,0l0,0h0.071v0.072l0,0l0,0h0.072l0,0l0,0v0.072l0,0H7.56l0,0l0,0v0.071l0,0l0,0l0,0v0.072l0,0h0.071V86.4l0,0l0,0l0,0v0.072l0,0l0,0v0.071H7.56l0,0l0,0v0.072l0,0l0,0l0,0v0.072l0,0H7.488l0,0l0,0v0.071l0,0H7.416l0,0l0,0l0,0H7.344v0.072l0,0l0,0H7.272l0,0l0,0l0,0H7.2L7.2,86.832z" gorn="0.1.33.0"  id="connector43pin"/>
            <rect x="-0.44" y="86.435" height="0.002" width="0.016" gorn="0.1.33.1"  id="connector43terminal" fill="none"/>
        </g>
        <g >
            <path d="M0,93.24v0.792l0,0h-0.071l0,0l0,0l0,0h-0.072l0,0l0,0V93.96h-0.072l0,0l0,0l0,0h-0.072l0,0v-0.071l0,0l0,0H-0.36l0,0v-0.072l0,0l0,0l0,0v-0.072l0,0l0,0h-0.072v-0.072l0,0l0,0V93.6l0,0l0,0l0,0v-0.072h0.072l0,0v-0.072l0,0l0,0l0,0v-0.072l0,0l0,0h0.071l0,0v-0.071l0,0l0,0h0.072l0,0l0,0V93.24h0.072l0,0l0,0l0,0h0.072l0,0l0,0l0,0H0L0,93.24z M7.2,94.032H0V93.24h7.2V94.032z M7.2,94.032V93.24l0,0h0.072l0,0l0,0l0,0h0.072l0,0l0,0l0,0h0.071v0.072l0,0l0,0h0.072l0,0l0,0v0.071l0,0H7.56l0,0l0,0v0.072l0,0l0,0l0,0v0.072l0,0h0.071V93.6l0,0l0,0l0,0v0.071l0,0l0,0v0.072H7.56l0,0l0,0v0.072l0,0l0,0l0,0v0.072l0,0H7.488l0,0l0,0v0.071l0,0H7.416l0,0l0,0l0,0H7.344v0.072l0,0l0,0H7.272l0,0l0,0l0,0H7.2L7.2,94.032z" gorn="0.1.34.0"  id="connector42pin"/>
            <rect x="-0.44" y="93.635" height="0.001" width="0.016" gorn="0.1.34.1"  id="connector42terminal" fill="none"/>
        </g>
        <g >
            <path d="M42.768,7.2h0.863v0.072l0,0H43.56v0.071l0,0l0,0l0,0v0.072l0,0l0,0l0,0v0.072h-0.072l0,0l0,0l0,0V7.56h-0.072l0,0l0,0l0,0l0,0h-0.071v0.071l0,0l0,0h-0.072l0,0l0,0H43.2l0,0l0,0l0,0h-0.072l0,0l0,0h-0.071l0,0l0,0l0,0L42.984,7.56l0,0l0,0l0,0l0,0h-0.072l0,0V7.488l0,0l0,0H42.84l0,0V7.416l0,0l0,0l0,0V7.344l0,0h-0.071l0,0V7.272l0,0l0,0V7.2z M43.632,0v7.2h-0.863V0H43.632z M43.632,0h-0.863l0,0l0,0l0,0v-0.072l0,0h0.071v-0.071l0,0l0,0l0,0v-0.072l0,0l0,0h0.072l0,0v-0.072l0,0l0,0h0.072l0,0l0,0V-0.36l0,0h0.072l0,0l0,0l0,0h0.071l0,0l0,0H43.2l0,0l0,0l0,0h0.072l0,0l0,0h0.072l0,0l0,0l0,0h0.071v0.071l0,0l0,0l0,0h0.072l0,0v0.072l0,0l0,0h0.072l0,0v0.072l0,0l0,0l0,0v0.071l0,0l0,0V0H43.632L43.632,0L43.632,0z" gorn="0.1.35.0"  id="connector64pin"/>
        </g>
        <g >
            <path d="M0,21.168v0.864l0,0l0,0h-0.071l0,0V21.96l0,0h-0.072l0,0l0,0l0,0h-0.072l0,0l0,0v-0.071h-0.072l0,0l0,0l0,0v-0.072l0,0H-0.36l0,0v-0.072l0,0l0,0l0,0v-0.072l0,0l0,0l0,0V21.6l0,0l0,0v-0.072l0,0l0,0l0,0v-0.072l0,0l0,0l0,0v-0.072l0,0h0.071l0,0v-0.071l0,0l0,0l0,0h0.072V21.24l0,0l0,0h0.072l0,0l0,0l0,0h0.072l0,0v-0.072l0,0H0L0,21.168L0,21.168z M7.2,22.032H0v-0.864h7.2V22.032z M7.2,22.032v-0.864h0.072l0,0l0,0l0,0l0.072,0.072l0,0l0,0l0,0h0.071l0,0l0,0l0,0h0.072v0.072l0,0l0,0l0,0H7.56v0.071l0,0l0,0l0,0v0.072l0,0h0.071l0,0v0.072l0,0l0,0l0,0V21.6l0,0l0,0v0.071l0,0l0,0l0,0v0.072l0,0H7.56l0,0v0.072l0,0l0,0l0,0v0.072H7.488l0,0l0,0l0,0v0.071H7.416l0,0l0,0l0,0H7.344l0,0l0,0l0,0l-0.072,0.072l0,0l0,0l0,0H7.2z" gorn="0.1.36.0"  id="connector63pin"/>
            <rect x="-0.368" y="21.599" height="0.002" width="0.017" gorn="0.1.36.1"  id="connector63terminal" fill="none"/>
        </g>
        <g >
            <path d="M57.168,7.2h0.864v0.072l0,0H57.96v0.071l0,0l0,0l0,0v0.072l0,0l0,0l0,0v0.072h-0.071l0,0l0,0l0,0V7.56h-0.072l0,0l0,0l0,0l0,0h-0.072v0.071l0,0l0,0h-0.072l0,0l0,0H57.6l0,0l0,0l0,0h-0.072l0,0l0,0h-0.072l0,0l0,0l0,0L57.384,7.56l0,0l0,0l0,0l0,0h-0.071l0,0V7.488l0,0l0,0H57.24l0,0V7.416l0,0l0,0l0,0V7.344h-0.072l0,0l0,0V7.272l0,0l0,0V7.2z M58.032,0v7.2h-0.864V0H58.032z M58.032,0h-0.864l0,0l0,0l0,0v-0.072l0,0l0,0l0.072-0.071l0,0l0,0l0,0v-0.072l0,0l0,0h0.072l0,0v-0.072l0,0l0,0h0.071l0,0l0,0V-0.36l0,0h0.072l0,0l0,0l0,0h0.072l0,0l0,0H57.6l0,0l0,0l0,0h0.071l0,0l0,0h0.072l0,0l0,0l0,0h0.072v0.071l0,0l0,0l0,0h0.072l0,0v0.072l0,0l0,0h0.071l0,0v0.072l0,0l0,0l0,0v0.071l0,0l0,0V0H58.032L58.032,0L58.032,0z" gorn="0.1.37.0"  id="connector62pin"/>
            <rect x="57.599" y="-0.368" height="0.017" width="0.002" gorn="0.1.37.1"  id="connector62terminal" fill="none"/>
        </g>
        <g >
            <path d="M50.04,122.4h0.792l0,0v0.072l0,0l0,0l0,0v0.071l0,0H50.76l0,0v0.072l0,0l0,0l0,0v0.072h-0.071l0,0l0,0l0,0v0.071h-0.072l0,0l0,0l0,0h-0.072l0,0l0,0l0,0l-0.071,0.072l0,0l0,0l0,0H50.4l0,0l0,0h-0.072l0,0v-0.072l0,0h-0.072l0,0l0,0l0,0h-0.071l0,0l0,0v-0.071h-0.072l0,0l0,0l0,0v-0.072l0,0H50.04l0,0v-0.072l0,0l0,0l0,0v-0.071l0,0l0,0l0,0V122.4L50.04,122.4z M50.832,115.2v7.2H50.04v-7.2H50.832z M50.832,115.2H50.04l0,0v-0.072l0,0l0,0l0,0v-0.071l0,0l0,0l0,0v-0.072l0,0h0.072l0,0v-0.072l0,0l0,0l0,0h0.072v-0.072l0,0l0,0h0.071l0,0l0,0l0,0h0.072l0,0v-0.071l0,0H50.4l0,0l0,0h0.072l0,0l0,0l0,0l0.071,0.071l0,0l0,0l0,0h0.072l0,0l0,0l0,0h0.072v0.072l0,0l0,0l0,0h0.071v0.072l0,0l0,0l0,0v0.072l0,0h0.072l0,0v0.071l0,0l0,0l0,0V115.2L50.832,115.2z" gorn="0.1.38.0"  id="connector61pin"/>
            <rect x="50.435" y="122.824" height="0.017" width="0.002" gorn="0.1.38.1"  id="connector61terminal" fill="none"/>
        </g>
        <g >
            <path d="M79.2,50.04v0.792l0,0h-0.072l0,0l0,0l0,0h-0.071l0,0l0,0V50.76h-0.072l0,0l0,0l0,0h-0.072l0,0v-0.071l0,0l0,0H78.84l0,0v-0.072l0,0l0,0l0,0v-0.072l0,0l0,0h-0.071v-0.071l0,0l0,0V50.4l0,0l0,0l0,0v-0.072h0.071l0,0v-0.072l0,0l0,0l0,0v-0.071l0,0l0,0h0.072l0,0v-0.072l0,0l0,0h0.072l0,0l0,0V50.04h0.072l0,0l0,0l0,0h0.071l0,0l0,0l0,0H79.2L79.2,50.04z M86.4,50.832h-7.2V50.04h7.2V50.832z M86.4,50.832V50.04l0,0h0.072l0,0l0,0l0,0h0.071l0,0l0,0l0,0h0.072v0.072l0,0l0,0h0.072l0,0l0,0v0.072l0,0h0.071l0,0l0,0v0.071l0,0l0,0l0,0v0.072l0,0h0.072V50.4l0,0l0,0l0,0v0.072l0,0l0,0v0.071H86.76l0,0l0,0v0.072l0,0l0,0l0,0v0.072l0,0h-0.071l0,0l0,0v0.071l0,0h-0.072l0,0l0,0l0,0h-0.072v0.072l0,0l0,0h-0.071l0,0l0,0l0,0H86.4L86.4,50.832z" gorn="0.1.39.0"  id="connector60pin"/>
            <rect x="86.824" y="50.435" height="0.001" width="0.017" gorn="0.1.39.1"  id="connector60terminal" fill="none"/>
        </g>
        <g >
            <path d="M79.2,57.24v0.792l0,0h-0.072l0,0l0,0l0,0h-0.071l0,0l0,0V57.96h-0.072l0,0l0,0l0,0h-0.072l0,0v-0.071l0,0l0,0H78.84l0,0v-0.072l0,0l0,0l0,0v-0.072l0,0l0,0h-0.071v-0.072l0,0l0,0V57.6l0,0l0,0l0,0v-0.072h0.071l0,0v-0.072l0,0l0,0l0,0v-0.072l0,0l0,0h0.072l0,0v-0.071l0,0l0,0h0.072l0,0l0,0V57.24h0.072l0,0l0,0l0,0h0.071l0,0l0,0l0,0H79.2L79.2,57.24z M86.4,58.032h-7.2V57.24h7.2V58.032z M86.4,58.032V57.24l0,0h0.072l0,0l0,0l0,0h0.071l0,0l0,0l0,0h0.072v0.072l0,0l0,0h0.072l0,0l0,0v0.071l0,0h0.071l0,0l0,0v0.072l0,0l0,0l0,0v0.072l0,0h0.072V57.6l0,0l0,0l0,0v0.071l0,0l0,0v0.072H86.76l0,0l0,0v0.072l0,0l0,0l0,0v0.072l0,0h-0.071l0,0l0,0v0.071l0,0h-0.072l0,0l0,0l0,0h-0.072v0.072l0,0l0,0h-0.071l0,0l0,0l0,0H86.4L86.4,58.032z" gorn="0.1.40.0"  id="connector59pin"/>
            <rect x="86.824" y="57.635" height="0.001" width="0.017" gorn="0.1.40.1"  id="connector59terminal" fill="none"/>
        </g>
        <g >
            <path d="M79.2,64.44v0.792l0,0h-0.072l0,0l0,0l0,0h-0.071l0,0l0,0V65.16h-0.072l0,0l0,0l0,0h-0.072l0,0v-0.072l0,0l0,0H78.84l0,0v-0.071l0,0l0,0l0,0v-0.072l0,0l0,0h-0.071v-0.072l0,0l0,0V64.8l0,0l0,0l0,0v-0.071h0.071l0,0v-0.072l0,0l0,0l0,0v-0.072l0,0l0,0h0.072l0,0v-0.071l0,0l0,0h0.072l0,0l0,0V64.44h0.072l0,0l0,0l0,0h0.071l0,0l0,0l0,0H79.2L79.2,64.44z M86.4,65.232h-7.2V64.44h7.2V65.232z M86.4,65.232V64.44l0,0h0.072l0,0l0,0l0,0h0.071l0,0l0,0l0,0h0.072v0.072l0,0l0,0h0.072l0,0l0,0v0.071l0,0h0.071l0,0l0,0v0.072l0,0l0,0l0,0v0.072l0,0h0.072V64.8l0,0l0,0l0,0v0.072l0,0l0,0v0.072H86.76l0,0l0,0v0.072l0,0l0,0l0,0v0.071l0,0h-0.071l0,0l0,0v0.072l0,0h-0.072l0,0l0,0l0,0h-0.072v0.072l0,0l0,0h-0.071l0,0l0,0l0,0H86.4L86.4,65.232z" gorn="0.1.41.0"  id="connector58pin"/>
            <rect x="86.824" y="64.835" height="0.002" width="0.017" gorn="0.1.41.1"  id="connector58terminal" fill="none"/>
        </g>
        <g >
            <path d="M79.2,71.64v0.792l0,0h-0.072l0,0l0,0l0,0h-0.071l0,0l0,0V72.36h-0.072l0,0l0,0l0,0h-0.072l0,0v-0.072l0,0l0,0H78.84l0,0v-0.072l0,0l0,0l0,0v-0.071l0,0l0,0h-0.071v-0.072l0,0l0,0V72l0,0l0,0l0,0v-0.072h0.071l0,0v-0.071l0,0l0,0l0,0v-0.072l0,0l0,0h0.072l0,0v-0.072l0,0l0,0h0.072l0,0l0,0V71.64h0.072l0,0l0,0l0,0h0.071l0,0l0,0l0,0H79.2L79.2,71.64z M86.4,72.432h-7.2V71.64h7.2V72.432z M86.4,72.432V71.64l0,0h0.072l0,0l0,0l0,0h0.071l0,0l0,0l0,0h0.072v0.071l0,0l0,0h0.072l0,0l0,0v0.072l0,0h0.071l0,0l0,0v0.072l0,0l0,0l0,0v0.071l0,0h0.072V72l0,0l0,0l0,0v0.072l0,0l0,0v0.072H86.76l0,0l0,0v0.071l0,0l0,0l0,0v0.072l0,0h-0.071l0,0l0,0v0.072l0,0h-0.072l0,0l0,0l0,0h-0.072v0.072l0,0l0,0h-0.071l0,0l0,0l0,0H86.4L86.4,72.432z" gorn="0.1.42.0"  id="connector57pin"/>
            <rect x="86.824" y="72.035" height="0.002" width="0.017" gorn="0.1.42.1"  id="connector57terminal" fill="none"/>
        </g>
        <g >
            <path d="M79.2,78.84v0.792l0,0h-0.072l0,0l0,0l0,0h-0.071l0,0l0,0V79.56h-0.072l0,0l0,0l0,0h-0.072l0,0v-0.072l0,0l0,0H78.84l0,0v-0.072l0,0l0,0l0,0v-0.072l0,0l0,0h-0.071v-0.071l0,0l0,0V79.2l0,0l0,0l0,0v-0.072h0.071l0,0v-0.071l0,0l0,0l0,0v-0.072l0,0l0,0h0.072l0,0v-0.072l0,0l0,0h0.072l0,0l0,0V78.84h0.072l0,0l0,0l0,0h0.071l0,0l0,0l0,0H79.2L79.2,78.84z M86.4,79.632h-7.2V78.84h7.2V79.632z M86.4,79.632V78.84l0,0h0.072l0,0l0,0l0,0h0.071l0,0l0,0l0,0h0.072v0.072l0,0l0,0h0.072l0,0l0,0v0.072l0,0h0.071l0,0l0,0v0.072l0,0l0,0l0,0v0.071l0,0h0.072V79.2l0,0l0,0l0,0v0.072l0,0l0,0v0.071H86.76l0,0l0,0v0.072l0,0l0,0l0,0v0.072l0,0h-0.071l0,0l0,0v0.072l0,0h-0.072l0,0l0,0l0,0h-0.072v0.071l0,0l0,0h-0.071l0,0l0,0l0,0H86.4L86.4,79.632z" gorn="0.1.43.0"  id="connector56pin"/>
            <rect x="86.824" y="79.235" height="0.002" width="0.017" gorn="0.1.43.1"  id="connector56terminal" fill="none"/>
        </g>
        <g >
            <path d="M79.2,86.04v0.792l0,0h-0.072l0,0l0,0l0,0h-0.071l0,0l0,0V86.76h-0.072l0,0l0,0l0,0h-0.072l0,0v-0.071l0,0l0,0H78.84l0,0v-0.072l0,0l0,0l0,0v-0.072l0,0l0,0h-0.071v-0.071l0,0l0,0V86.4l0,0l0,0l0,0v-0.072h0.071l0,0v-0.072l0,0l0,0l0,0v-0.071l0,0l0,0h0.072l0,0v-0.072l0,0l0,0h0.072l0,0l0,0V86.04h0.072l0,0l0,0l0,0h0.071l0,0l0,0l0,0H79.2L79.2,86.04z M86.4,86.832h-7.2V86.04h7.2V86.832z M86.4,86.832V86.04l0,0h0.072l0,0l0,0l0,0h0.071l0,0l0,0l0,0h0.072v0.072l0,0l0,0h0.072l0,0l0,0v0.072l0,0h0.071l0,0l0,0v0.071l0,0l0,0l0,0v0.072l0,0h0.072V86.4l0,0l0,0l0,0v0.072l0,0l0,0v0.071H86.76l0,0l0,0v0.072l0,0l0,0l0,0v0.072l0,0h-0.071l0,0l0,0v0.071l0,0h-0.072l0,0l0,0l0,0h-0.072v0.072l0,0l0,0h-0.071l0,0l0,0l0,0H86.4L86.4,86.832z" gorn="0.1.44.0"  id="connector55pin"/>
            <rect x="86.824" y="86.435" height="0.002" width="0.017" gorn="0.1.44.1"  id="connector55terminal" fill="none"/>
        </g>
        <g >
            <path d="M79.2,93.24v0.792l0,0h-0.072l0,0l0,0l0,0h-0.071l0,0l0,0V93.96h-0.072l0,0l0,0l0,0h-0.072l0,0v-0.071l0,0l0,0H78.84l0,0v-0.072l0,0l0,0l0,0v-0.072l0,0l0,0h-0.071v-0.072l0,0l0,0V93.6l0,0l0,0l0,0v-0.072h0.071l0,0v-0.072l0,0l0,0l0,0v-0.072l0,0l0,0h0.072l0,0v-0.071l0,0l0,0h0.072l0,0l0,0V93.24h0.072l0,0l0,0l0,0h0.071l0,0l0,0l0,0H79.2L79.2,93.24z M86.4,94.032h-7.2V93.24h7.2V94.032z M86.4,94.032V93.24l0,0h0.072l0,0l0,0l0,0h0.071l0,0l0,0l0,0h0.072v0.072l0,0l0,0h0.072l0,0l0,0v0.071l0,0h0.071l0,0l0,0v0.072l0,0l0,0l0,0v0.072l0,0h0.072V93.6l0,0l0,0l0,0v0.071l0,0l0,0v0.072H86.76l0,0l0,0v0.072l0,0l0,0l0,0v0.072l0,0h-0.071l0,0l0,0v0.071l0,0h-0.072l0,0l0,0l0,0h-0.072v0.072l0,0l0,0h-0.071l0,0l0,0l0,0H86.4L86.4,94.032z" gorn="0.1.45.0"  id="connector54pin"/>
            <rect x="86.824" y="93.635" height="0.001" width="0.017" gorn="0.1.45.1"  id="connector54terminal" fill="none"/>
        </g>
        <g >
            <path d="M0,100.44v0.792l0,0h-0.071l0,0l0,0l0,0h-0.072l0,0l0,0v-0.072h-0.072l0,0l0,0l0,0h-0.072l0,0v-0.072l0,0l0,0H-0.36l0,0v-0.071l0,0l0,0l0,0v-0.072l0,0l0,0h-0.072v-0.072l0,0l0,0V100.8l0,0l0,0l0,0v-0.071h0.072l0,0v-0.072l0,0l0,0l0,0v-0.072l0,0l0,0h0.071l0,0v-0.071l0,0l0,0h0.072l0,0l0,0v-0.072h0.072l0,0l0,0l0,0h0.072l0,0l0,0l0,0H0L0,100.44z M7.2,101.232H0v-0.792h7.2V101.232z M7.2,101.232v-0.792l0,0h0.072l0,0l0,0l0,0h0.072l0,0l0,0l0,0h0.071v0.072l0,0l0,0h0.072l0,0l0,0v0.071l0,0H7.56l0,0l0,0v0.072l0,0l0,0l0,0v0.072l0,0h0.071v0.071l0,0l0,0l0,0v0.072l0,0l0,0v0.072H7.56l0,0l0,0v0.072l0,0l0,0l0,0v0.071l0,0H7.488l0,0l0,0v0.072l0,0H7.416l0,0l0,0l0,0H7.344v0.072l0,0l0,0H7.272l0,0l0,0l0,0H7.2L7.2,101.232z" gorn="0.1.46.0"  id="connector41pin"/>
            <rect x="-0.44" y="100.836" height="0.001" width="0.016" gorn="0.1.46.1"  id="connector41terminal" fill="none"/>
        </g>
        <g >
            <path d="M79.2,100.44v0.792l0,0h-0.072l0,0l0,0l0,0h-0.071l0,0l0,0v-0.072h-0.072l0,0l0,0l0,0h-0.072l0,0v-0.072l0,0l0,0H78.84l0,0v-0.071l0,0l0,0l0,0v-0.072l0,0l0,0h-0.071v-0.072l0,0l0,0V100.8l0,0l0,0l0,0v-0.071h0.071l0,0v-0.072l0,0l0,0l0,0v-0.072l0,0l0,0h0.072l0,0v-0.071l0,0l0,0h0.072l0,0l0,0v-0.072h0.072l0,0l0,0l0,0h0.071l0,0l0,0l0,0H79.2L79.2,100.44z M86.4,101.232h-7.2v-0.792h7.2V101.232z M86.4,101.232v-0.792l0,0h0.072l0,0l0,0l0,0h0.071l0,0l0,0l0,0h0.072v0.072l0,0l0,0h0.072l0,0l0,0v0.071l0,0h0.071l0,0l0,0v0.072l0,0l0,0l0,0v0.072l0,0h0.072v0.071l0,0l0,0l0,0v0.072l0,0l0,0v0.072H86.76l0,0l0,0v0.072l0,0l0,0l0,0v0.071l0,0h-0.071l0,0l0,0v0.072l0,0h-0.072l0,0l0,0l0,0h-0.072v0.072l0,0l0,0h-0.071l0,0l0,0l0,0H86.4L86.4,101.232z" gorn="0.1.47.0"  id="connector53pin"/>
            <rect x="86.824" y="100.836" height="0.001" width="0.017" gorn="0.1.47.1"  id="connector53terminal" fill="none"/>
        </g>
        <g >
            <path d="M35.64,122.4h0.792l0,0v0.072l0,0l0,0l0,0v0.071l0,0H36.36l0,0v0.072l0,0l0,0l0,0v0.072h-0.072l0,0l0,0l0,0v0.071h-0.072l0,0l0,0l0,0h-0.071l0,0l0,0l0,0l-0.072,0.072l0,0l0,0l0,0H36l0,0l0,0h-0.071l0,0v-0.072l0,0h-0.072l0,0l0,0l0,0h-0.072l0,0l0,0v-0.071h-0.072l0,0l0,0l0,0v-0.072l0,0H35.64l0,0v-0.072l0,0l0,0l0,0v-0.071l0,0l0,0l0,0V122.4L35.64,122.4z M36.432,115.2v7.2H35.64v-7.2H36.432z M36.432,115.2H35.64l0,0v-0.072l0,0l0,0l0,0v-0.071l0,0l0,0l0,0v-0.072l0,0h0.071l0,0v-0.072l0,0l0,0l0,0h0.072v-0.072l0,0l0,0h0.072l0,0l0,0l0,0h0.072l0,0v-0.071l0,0H36l0,0l0,0h0.072l0,0l0,0l0,0l0.072,0.071l0,0l0,0l0,0h0.071l0,0l0,0l0,0h0.072v0.072l0,0l0,0l0,0h0.072v0.072l0,0l0,0l0,0v0.072l0,0h0.072l0,0v0.071l0,0l0,0l0,0V115.2L36.432,115.2z" gorn="0.1.48.0"  id="connector51pin"/>
            <rect x="36.035" y="122.824" height="0.017" width="0.002" gorn="0.1.48.1"  id="connector51terminal" fill="none"/>
        </g>
        <g >
            <path d="M27.387,27.394v-6.46h2.864c0.576,0,1.014,0.058,1.313,0.174c0.3,0.116,0.539,0.321,0.718,0.615c0.179,0.294,0.269,0.619,0.269,0.974c0,0.458-0.148,0.845-0.445,1.159c-0.296,0.314-0.755,0.514-1.375,0.6c0.226,0.108,0.398,0.216,0.516,0.321c0.25,0.229,0.486,0.516,0.709,0.859l1.124,1.758h-1.075l-0.855-1.344c-0.25-0.388-0.456-0.685-0.617-0.891c-0.162-0.206-0.307-0.349-0.434-0.432c-0.128-0.082-0.258-0.14-0.39-0.172c-0.097-0.021-0.255-0.031-0.476-0.031h-0.991v2.869H27.387z M28.242,23.785h1.837c0.391,0,0.696-0.041,0.917-0.121c0.22-0.081,0.388-0.21,0.502-0.388c0.115-0.178,0.172-0.371,0.172-0.58c0-0.306-0.111-0.557-0.333-0.753c-0.222-0.197-0.572-0.295-1.051-0.295h-2.044V23.785z" />
            <path d="M36.994,25.887l0.819,0.101c-0.129,0.479-0.369,0.851-0.718,1.115c-0.35,0.265-0.796,0.397-1.339,0.397c-0.685,0-1.228-0.211-1.628-0.632c-0.401-0.422-0.602-1.013-0.602-1.774c0-0.787,0.203-1.398,0.608-1.833c0.405-0.435,0.931-0.652,1.577-0.652c0.626,0,1.137,0.213,1.534,0.639s0.595,1.025,0.595,1.798c0,0.047-0.001,0.118-0.004,0.211h-3.49c0.029,0.514,0.175,0.908,0.436,1.181c0.262,0.273,0.587,0.41,0.979,0.41c0.291,0,0.539-0.077,0.745-0.229C36.71,26.466,36.873,26.221,36.994,25.887z M34.389,24.604h2.613c-0.036-0.394-0.135-0.688-0.3-0.885c-0.253-0.306-0.58-0.458-0.983-0.458c-0.364,0-0.67,0.122-0.918,0.366C34.553,23.87,34.416,24.196,34.389,24.604z" />
            <path d="M41.845,27.394v-0.59c-0.297,0.464-0.733,0.696-1.309,0.696c-0.373,0-0.716-0.103-1.029-0.309s-0.555-0.493-0.727-0.862c-0.172-0.368-0.258-0.792-0.258-1.271c0-0.467,0.078-0.891,0.233-1.271s0.389-0.672,0.701-0.875s0.66-0.304,1.044-0.304c0.282,0,0.533,0.06,0.753,0.179c0.22,0.119,0.399,0.274,0.537,0.465v-2.318h0.789v6.46H41.845z M39.338,25.058c0,0.599,0.126,1.047,0.379,1.344c0.252,0.297,0.551,0.445,0.895,0.445c0.347,0,0.641-0.142,0.884-0.425c0.242-0.284,0.363-0.716,0.363-1.298c0-0.64-0.124-1.11-0.37-1.41c-0.247-0.299-0.551-0.449-0.912-0.449c-0.353,0-0.647,0.144-0.883,0.432C39.456,23.985,39.338,24.439,39.338,25.058z" />
            <path d="M43.893,27.394v-6.46h2.424c0.494,0,0.891,0.065,1.188,0.196c0.298,0.13,0.532,0.332,0.701,0.604c0.169,0.271,0.252,0.556,0.252,0.853c0,0.276-0.074,0.536-0.225,0.78c-0.149,0.244-0.376,0.44-0.679,0.59c0.391,0.114,0.692,0.31,0.902,0.586c0.21,0.276,0.314,0.602,0.314,0.978c0,0.303-0.063,0.584-0.191,0.844c-0.128,0.26-0.286,0.46-0.475,0.602c-0.188,0.141-0.423,0.247-0.706,0.319c-0.283,0.072-0.632,0.108-1.043,0.108H43.893z M44.749,23.648h1.396c0.379,0,0.651-0.025,0.815-0.075c0.218-0.065,0.382-0.172,0.492-0.322s0.164-0.338,0.164-0.564c0-0.214-0.051-0.403-0.153-0.566c-0.104-0.163-0.25-0.274-0.441-0.335c-0.19-0.06-0.519-0.09-0.982-0.09h-1.291V23.648z M44.749,26.632h1.608c0.276,0,0.47-0.01,0.582-0.031c0.196-0.036,0.361-0.094,0.493-0.176c0.132-0.083,0.241-0.202,0.326-0.359s0.128-0.338,0.128-0.544c0-0.241-0.062-0.45-0.186-0.627c-0.123-0.178-0.294-0.303-0.513-0.375c-0.219-0.072-0.534-0.108-0.945-0.108h-1.494V26.632z" />
            <path d="M53.051,25.887l0.819,0.101c-0.129,0.479-0.368,0.851-0.718,1.115c-0.35,0.265-0.796,0.397-1.34,0.397c-0.685,0-1.227-0.211-1.627-0.632c-0.401-0.422-0.603-1.013-0.603-1.774c0-0.787,0.202-1.398,0.608-1.833c0.405-0.435,0.931-0.652,1.577-0.652c0.626,0,1.137,0.213,1.533,0.639s0.595,1.025,0.595,1.798c0,0.047-0.001,0.118-0.004,0.211h-3.49c0.029,0.514,0.175,0.908,0.437,1.181c0.262,0.273,0.588,0.41,0.979,0.41c0.29,0,0.539-0.077,0.744-0.229C52.767,26.466,52.93,26.221,53.051,25.887z M50.446,24.604h2.613c-0.035-0.394-0.135-0.688-0.3-0.885c-0.253-0.306-0.58-0.458-0.982-0.458c-0.364,0-0.67,0.122-0.918,0.366S50.472,24.196,50.446,24.604z" />
            <path d="M57.92,26.817c-0.294,0.25-0.576,0.426-0.848,0.529c-0.271,0.103-0.563,0.154-0.875,0.154c-0.515,0-0.909-0.126-1.186-0.377s-0.414-0.572-0.414-0.963c0-0.229,0.053-0.438,0.157-0.628s0.24-0.341,0.409-0.456s0.358-0.201,0.57-0.26c0.155-0.042,0.391-0.081,0.705-0.119c0.641-0.077,1.112-0.167,1.414-0.273c0.003-0.108,0.005-0.178,0.005-0.207c0-0.323-0.075-0.551-0.225-0.683c-0.203-0.179-0.504-0.269-0.903-0.269c-0.373,0-0.648,0.065-0.826,0.196c-0.178,0.13-0.31,0.362-0.395,0.694l-0.775-0.106c0.07-0.332,0.187-0.6,0.348-0.804c0.162-0.204,0.396-0.361,0.701-0.471c0.305-0.11,0.659-0.166,1.062-0.166c0.399,0,0.725,0.047,0.974,0.141c0.25,0.094,0.434,0.212,0.551,0.355c0.118,0.142,0.2,0.322,0.247,0.54c0.026,0.135,0.04,0.379,0.04,0.731v1.058c0,0.737,0.018,1.204,0.051,1.399c0.034,0.195,0.101,0.383,0.2,0.562h-0.828C57.996,27.229,57.943,27.037,57.92,26.817z M57.853,25.045c-0.287,0.118-0.72,0.217-1.295,0.3c-0.326,0.047-0.557,0.1-0.692,0.158c-0.135,0.059-0.239,0.145-0.312,0.258c-0.073,0.113-0.11,0.239-0.11,0.377c0,0.211,0.081,0.388,0.241,0.529s0.394,0.211,0.702,0.211c0.306,0,0.577-0.067,0.815-0.201c0.237-0.133,0.412-0.316,0.524-0.548c0.085-0.179,0.127-0.444,0.127-0.793V25.045z" />
            <path d="M59.876,27.394v-4.68h0.715v0.709c0.182-0.332,0.351-0.551,0.505-0.657c0.154-0.105,0.323-0.159,0.508-0.159c0.268,0,0.539,0.085,0.815,0.256L62.145,23.6c-0.193-0.115-0.388-0.172-0.581-0.172c-0.174,0-0.329,0.052-0.468,0.156c-0.138,0.104-0.236,0.249-0.295,0.434c-0.088,0.282-0.132,0.59-0.132,0.925v2.45H59.876z" />
            <path d="M27.374,38.223v-6.46h2.225c0.502,0,0.886,0.031,1.15,0.093c0.37,0.085,0.686,0.239,0.947,0.463c0.341,0.288,0.596,0.656,0.765,1.104c0.169,0.448,0.253,0.96,0.253,1.536c0,0.491-0.058,0.925-0.172,1.304c-0.115,0.379-0.262,0.693-0.441,0.941c-0.179,0.249-0.375,0.444-0.588,0.586c-0.213,0.142-0.47,0.25-0.771,0.324c-0.301,0.073-0.647,0.11-1.038,0.11H27.374z M28.229,37.461h1.379c0.426,0,0.76-0.04,1.003-0.119c0.242-0.08,0.435-0.191,0.579-0.335c0.203-0.203,0.361-0.476,0.474-0.817c0.113-0.342,0.17-0.757,0.17-1.245c0-0.676-0.111-1.195-0.333-1.558c-0.222-0.363-0.491-0.606-0.809-0.729c-0.229-0.088-0.598-0.132-1.106-0.132h-1.357V37.461z" />
            <path d="M36.857,38.223v-0.687c-0.364,0.529-0.859,0.793-1.485,0.793c-0.276,0-0.534-0.053-0.773-0.159c-0.24-0.105-0.417-0.239-0.533-0.399c-0.116-0.16-0.198-0.356-0.245-0.588c-0.032-0.156-0.048-0.403-0.048-0.741v-2.899h0.793v2.596c0,0.414,0.016,0.693,0.048,0.837c0.05,0.209,0.156,0.373,0.317,0.492c0.162,0.119,0.361,0.178,0.599,0.178c0.238,0,0.461-0.061,0.67-0.183c0.208-0.122,0.356-0.288,0.443-0.498c0.087-0.21,0.13-0.515,0.13-0.915v-2.507h0.793v4.68H36.857z" />
            <path d="M38.514,35.883c0-0.866,0.241-1.508,0.723-1.925c0.402-0.347,0.893-0.52,1.472-0.52c0.644,0,1.169,0.211,1.577,0.632s0.613,1.004,0.613,1.747c0,0.602-0.09,1.076-0.271,1.421s-0.443,0.613-0.789,0.804c-0.345,0.191-0.723,0.287-1.131,0.287c-0.655,0-1.185-0.21-1.588-0.63C38.716,37.279,38.514,36.674,38.514,35.883z M39.329,35.883c0,0.6,0.131,1.048,0.393,1.346c0.261,0.298,0.59,0.447,0.987,0.447c0.394,0,0.721-0.149,0.982-0.449c0.261-0.3,0.392-0.756,0.392-1.371c0-0.579-0.131-1.017-0.394-1.315c-0.263-0.298-0.59-0.447-0.981-0.447c-0.396,0-0.726,0.148-0.987,0.445C39.46,34.836,39.329,35.284,39.329,35.883z" />
        </g>
    </g>
</svg>
